<svg width="1697" height="1511" viewBox="0 0 1697 1511" fill="none" xmlns="http://www.w3.org/2000/svg">
<path d="M8.56072 1050.54C0.935021 1055.01 -1.63937 1064.82 2.95819 1072.36C66.3851 1176.47 150.039 1266.88 249.032 1338.21C352.353 1412.66 470.1 1464.69 594.714 1490.95C719.328 1517.21 848.057 1517.12 972.636 1490.69C1097.21 1464.27 1214.89 1412.09 1318.11 1337.5C1421.34 1262.91 1507.82 1167.56 1572.02 1057.57C1636.22 947.586 1676.71 825.392 1690.89 698.834C1705.08 572.275 1692.65 444.149 1654.39 322.679C1617.74 206.298 1558.16 98.4923 1479.23 5.59069C1473.51 -1.14338 1463.38 -1.77858 1456.75 4.06012L1422.4 34.2952C1415.77 40.1339 1415.14 50.2347 1420.85 56.9781C1492.63 141.736 1546.83 239.996 1580.22 346.036C1615.22 457.166 1626.6 574.386 1613.62 690.172C1600.64 805.957 1563.6 917.75 1504.86 1018.37C1446.13 1119 1367.01 1206.23 1272.57 1274.47C1178.14 1342.71 1070.47 1390.45 956.5 1414.63C842.526 1438.8 724.755 1438.88 610.748 1414.86C496.741 1390.83 389.017 1343.24 294.491 1275.12C204.294 1210.13 128.015 1127.82 70.0733 1033.07C65.4634 1025.53 55.6752 1022.96 48.0495 1027.42L8.56072 1050.54Z" fill="url(#paint0_linear_3_49)"/>
<defs>
<linearGradient id="paint0_linear_3_49" x1="1617.6" y1="968.632" x2="-51.446" y2="225.524" gradientUnits="userSpaceOnUse">
<stop stop-color="#CCFBFF"/>
<stop offset="0.331005" stop-color="#FFE066"/>
<stop offset="0.65563" stop-color="#FF6B6B"/>
<stop offset="1" stop-color="#7A00FF"/>
</linearGradient>
</defs>
</svg>
