<svg xmlns="http://www.w3.org/2000/svg" viewBox="0 0 500 500"><g id="freepik--background-complete--inject-54"><rect x="44.78" y="52.11" width="102.48" height="148.54" style="fill:#e0e0e0"></rect><rect x="39.65" y="52.11" width="102.48" height="148.54" style="fill:#f5f5f5"></rect><rect x="52.38" y="68.19" width="77.01" height="116.36" style="fill:#fff"></rect><path d="M129.39,184.56s0-.2,0-.57,0-.94,0-1.65c0-1.47,0-3.61,0-6.39,0-5.57,0-13.7-.07-24,0-20.51-.07-49.57-.12-83.79l.25.26-77,0h0l.28-.28c0,43.9,0,84.37-.06,116.37l-.22-.23,56.06.12,15.48.06,4.07,0,1.4,0-1.35,0-4,0-15.44.06-56.19.12h-.22v-.22c0-32,0-72.47-.06-116.37v-.28h.29l77,0h.26v.25c-.05,34.29-.1,63.4-.13,84,0,10.24-.05,18.35-.06,23.91l0,6.34c0,.7,0,1.24,0,1.62S129.39,184.56,129.39,184.56Z" style="fill:#e0e0e0"></path><path d="M142.41,52.11a17.74,17.74,0,0,1-1.82,2.65c-1.19,1.59-2.88,3.76-4.81,6.1s-3.73,4.41-5.07,5.89a17.58,17.58,0,0,1-2.25,2.3,19.56,19.56,0,0,1,1.95-2.56l4.94-6c1.87-2.26,3.55-4.32,4.93-6A19.44,19.44,0,0,1,142.41,52.11Z" style="fill:#e0e0e0"></path><path d="M129.79,184.18A95.34,95.34,0,0,0,143.22,201" style="fill:#fff"></path><path d="M143.22,201a15,15,0,0,1-2.34-2.13,75.11,75.11,0,0,1-5.07-5.72,74,74,0,0,1-4.46-6.2,15.37,15.37,0,0,1-1.56-2.75,21.84,21.84,0,0,1,1.89,2.53c1.13,1.59,2.71,3.76,4.57,6.08s3.62,4.34,4.91,5.79A20.79,20.79,0,0,1,143.22,201Z" style="fill:#e0e0e0"></path><path d="M39.63,200.53,53.06,184" style="fill:#fff"></path><path d="M53.06,184a100.38,100.38,0,0,1-6.5,8.46,105.65,105.65,0,0,1-6.93,8.11,100.38,100.38,0,0,1,6.5-8.46A105.65,105.65,0,0,1,53.06,184Z" style="fill:#e0e0e0"></path><path d="M39.65,52.11a91.17,91.17,0,0,1,6.51,7.78A91.81,91.81,0,0,1,52.24,68a92.38,92.38,0,0,1-6.51-7.79A94.4,94.4,0,0,1,39.65,52.11Z" style="fill:#e0e0e0"></path><rect x="79.61" y="91.82" width="25.79" height="73.22" style="fill:#e0e0e0"></rect><rect x="219.07" y="35.46" width="70.61" height="73.61" style="fill:#e0e0e0"></rect><rect x="214.29" y="35.46" width="70.61" height="73.61" style="fill:#fafafa"></rect><path d="M284.92,109.1H214.26V35.44h70.66Zm-70.61,0h70.57V35.49H214.31Z" style="fill:#e0e0e0"></path><rect x="223.78" y="45.36" width="51.63" height="53.82" style="fill:#fff"></rect><path d="M223.78,99.54A8.79,8.79,0,0,1,222.5,101c-.82.87-2,2-3.28,3.33s-2.49,2.41-3.37,3.22a9,9,0,0,1-1.49,1.25,7.64,7.64,0,0,1,1.26-1.48c.83-.87,2-2,3.29-3.33s2.5-2.43,3.38-3.24A7.64,7.64,0,0,1,223.78,99.54Z" style="fill:#e0e0e0"></path><path d="M275.41,99.4a8.35,8.35,0,0,1,1.48,1.28c.87.82,2.05,2,3.33,3.28s2.42,2.49,3.22,3.37a8.33,8.33,0,0,1,1.25,1.5,8.51,8.51,0,0,1-1.48-1.27c-.87-.83-2-2-3.33-3.29s-2.43-2.5-3.24-3.38A7.77,7.77,0,0,1,275.41,99.4Z" style="fill:#e0e0e0"></path><path d="M275.27,45.5A9,9,0,0,1,276.54,44c.82-.87,2-2.05,3.28-3.32s2.5-2.42,3.38-3.23a8.52,8.52,0,0,1,1.49-1.25,8.51,8.51,0,0,1-1.27,1.48c-.82.87-2,2-3.29,3.33s-2.5,2.43-3.38,3.24A7.8,7.8,0,0,1,275.27,45.5Z" style="fill:#e0e0e0"></path><path d="M223.64,45.64a8.35,8.35,0,0,1-1.48-1.28c-.87-.82-2-2-3.33-3.28s-2.42-2.49-3.23-3.37a7.49,7.49,0,0,1-1.24-1.5,9.21,9.21,0,0,1,1.47,1.27c.87.83,2,2,3.34,3.29s2.42,2.5,3.23,3.38A7.63,7.63,0,0,1,223.64,45.64Z" style="fill:#e0e0e0"></path><path d="M275.27,99.18a1,1,0,0,1,0-.26c0-.19,0-.43,0-.75,0-.68,0-1.65,0-2.91,0-2.55,0-6.26-.05-11,0-9.42-.06-22.85-.1-38.93l.2.2-51.49,0h0l.23-.23c0,19.75,0,38.23,0,53.82l-.19-.2,37.28.1,10.47,0,2.77,0h0l-2.73,0-10.43,0-37.4.11h-.2v-.2c0-15.59,0-34.07,0-53.82v-.23h.23l51.49,0h.2v.2c-.05,16.13-.08,29.6-.11,39.06,0,4.69,0,8.38-.05,10.92,0,1.25,0,2.2,0,2.87,0,.31,0,.55,0,.73S275.27,99.18,275.27,99.18Z" style="fill:#e0e0e0"></path><rect x="240.98" y="63.66" width="17.23" height="17.23" style="fill:#ebebeb"></rect><rect x="419.13" y="76.63" width="7.53" height="37.46" transform="translate(-0.5 2.27) rotate(-0.31)" style="fill:#e0e0e0"></rect><rect x="353.87" y="76.76" width="19.49" height="20.68" transform="translate(-0.46 1.95) rotate(-0.31)" style="fill:#ebebeb"></rect><rect x="373.27" y="76.65" width="19.49" height="20.68" transform="translate(-0.46 2.05) rotate(-0.31)" style="fill:#f5f5f5"></rect><path d="M353.85,82.52c12.95.11,25.94,0,38.89-.18a.21.21,0,0,0,0-.41q-19.44-.11-38.9.24a.18.18,0,0,0,0,.35Z" style="fill:#e0e0e0"></path><rect x="341.71" y="97.13" width="35.42" height="16.85" transform="translate(-0.56 1.93) rotate(-0.31)" style="fill:#ebebeb"></rect><rect x="376.96" y="96.94" width="35.42" height="16.85" transform="translate(-0.56 2.12) rotate(-0.31)" style="fill:#f5f5f5"></rect><path d="M341.69,101.92c23.52.26,47.14,0,70.66-.35a.21.21,0,0,0,0-.42c-23.53-.12-47.14-.11-70.67.41a.18.18,0,0,0,0,.36Z" style="fill:#e0e0e0"></path><rect x="328.44" y="114.08" width="137.22" height="6.04" style="fill:#e0e0e0"></rect><rect x="350.91" y="116.98" width="5.57" height="20.6" style="fill:#e0e0e0"></rect><rect x="434.06" y="116.98" width="5.57" height="20.6" style="fill:#e0e0e0"></rect><rect x="426.51" y="62.66" width="7.53" height="51.52" transform="translate(-0.47 2.3) rotate(-0.31)" style="fill:#ebebeb"></rect><rect x="434.08" y="72.26" width="11.7" height="41.75" transform="translate(-0.49 2.36) rotate(-0.31)" style="fill:#f5f5f5"></rect><path d="M445.59,80.27a81.59,81.59,0,0,1-11.7,0,85.66,85.66,0,0,1,11.7,0Z" style="fill:#e0e0e0"></path><path d="M445.59,78.52a85.66,85.66,0,0,1-11.7,0,85.66,85.66,0,0,1,11.7,0Z" style="fill:#e0e0e0"></path><path d="M445.59,107.7a85.66,85.66,0,0,1-11.7,0,81.59,81.59,0,0,1,11.7,0Z" style="fill:#e0e0e0"></path><path d="M445.59,105.94a81.59,81.59,0,0,1-11.7,0,85.66,85.66,0,0,1,11.7,0Z" style="fill:#e0e0e0"></path><path d="M439.93,102.12c-.12,0-.21-4.22-.21-9.41s.09-9.41.21-9.41.2,4.21.2,9.41S440,102.12,439.93,102.12Z" style="fill:#e0e0e0"></path><rect x="445.71" y="82.48" width="12.73" height="31.51" style="fill:#ebebeb"></rect><path d="M432.19,71.44A2.17,2.17,0,1,1,430,69.27,2.16,2.16,0,0,1,432.19,71.44Z" style="fill:#e0e0e0"></path><rect x="429.36" y="77.39" width="1.34" height="30.65" style="fill:#e0e0e0"></rect><rect x="84.53" y="228.46" width="36.89" height="25.56" transform="translate(-81.96 55.23) rotate(-21.72)" style="fill:#f5f5f5"></rect><path d="M115.27,223.68s0,.16-.17.45-.37.74-.6,1.22l-2.3,4.48c-2,3.76-4.7,8.95-7.75,14.66-.63.25-.18.07-.32.12h-.06l-.08,0-.14,0-.29-.1-.57-.19-1.13-.38-2.21-.74-4.17-1.4-7-2.41-4.75-1.67-1.28-.48A2.1,2.1,0,0,1,82,237a1.73,1.73,0,0,1,.47.1l1.31.38L88.54,239l7.09,2.3,4.19,1.38,2.21.73,1.13.38.57.19.28.09.15,0,.07,0h.06l-.3.12c3.05-5.71,5.84-10.87,7.88-14.59l2.45-4.39.68-1.18A2.43,2.43,0,0,1,115.27,223.68Z" style="fill:#e0e0e0"></path><path d="M97,242a73.32,73.32,0,0,1-3.16,8.33,76.76,76.76,0,0,1-3.65,8.12,75,75,0,0,1,3.17-8.32A78.87,78.87,0,0,1,97,242Z" style="fill:#e0e0e0"></path><path d="M123.88,245.29a72.93,72.93,0,0,1-7.87-4.1,75.64,75.64,0,0,1-7.61-4.57,79,79,0,0,1,7.87,4.11A79.14,79.14,0,0,1,123.88,245.29Z" style="fill:#e0e0e0"></path><rect x="39.46" y="288.6" width="25.56" height="36.89" transform="matrix(0.01, -1, 1, 0.01, -255.5, 355.01)" style="fill:#f5f5f5"></rect><path d="M70.32,295.53s-.1.14-.33.35l-1,.9L65.13,300c-3.25,2.73-7.77,6.47-12.78,10.58H52l0,0-.06-.05-.11-.1-.23-.2-.45-.39-.9-.79-1.76-1.53-3.31-2.89-5.6-4.93-3.74-3.36-1-.93a1.92,1.92,0,0,1-.33-.35s.15.08.4.27l1.06.86,3.85,3.23,5.67,4.84,3.34,2.88,1.76,1.52.9.78.45.4.23.2.11.09.06.05,0,0h0c-.15,0,.34,0-.33,0,5-4.11,9.56-7.81,12.87-10.46l3.94-3.13,1.09-.82A1.9,1.9,0,0,1,70.32,295.53Z" style="fill:#e0e0e0"></path><path d="M46.43,305.41a78.75,78.75,0,0,1-6.11,6.48,75.51,75.51,0,0,1-6.48,6.1A75.79,75.79,0,0,1,40,311.52,75,75,0,0,1,46.43,305.41Z" style="fill:#e0e0e0"></path><path d="M70,318.79A75.2,75.2,0,0,1,64.3,312,74.08,74.08,0,0,1,59,304.86a76.29,76.29,0,0,1,5.69,6.81A75.38,75.38,0,0,1,70,318.79Z" style="fill:#e0e0e0"></path><rect x="44.28" y="376.02" width="25.56" height="36.89" transform="translate(-338.16 446.04) rotate(-89.2)" style="fill:#f5f5f5"></rect><path d="M75.14,383a1.73,1.73,0,0,1-.33.34l-1,.91L70,387.46c-3.25,2.73-7.77,6.47-12.78,10.58h-.36l0,0-.06-.05-.11-.1-.23-.19-.45-.4-.9-.78-1.76-1.53c-1.15-1-2.26-2-3.31-2.9l-5.6-4.93-3.74-3.35-1-.94c-.22-.21-.34-.33-.33-.35a1.55,1.55,0,0,1,.4.28l1.06.85,3.85,3.24,5.67,4.84,3.34,2.88,1.76,1.52.9.78.45.39.23.2.12.1,0,0,0,0h-.31c5-4.1,9.56-7.8,12.87-10.45l3.94-3.13,1.09-.83A2.06,2.06,0,0,1,75.14,383Z" style="fill:#e0e0e0"></path><path d="M51.25,392.84a77.78,77.78,0,0,1-6.11,6.47,76.71,76.71,0,0,1-6.48,6.11,76.71,76.71,0,0,1,6.11-6.48A77.49,77.49,0,0,1,51.25,392.84Z" style="fill:#e0e0e0"></path><path d="M74.81,406.22a76.29,76.29,0,0,1-5.69-6.81,74.76,74.76,0,0,1-5.28-7.12,75.2,75.2,0,0,1,5.69,6.8A76.2,76.2,0,0,1,74.81,406.22Z" style="fill:#e0e0e0"></path><rect x="420.8" y="275.23" width="36.89" height="25.56" transform="translate(-44.05 82.31) rotate(-10.2)" style="fill:#f5f5f5"></rect><path d="M454.81,273.26a2.06,2.06,0,0,1-.26.4l-.84,1.09-3.14,3.92c-2.67,3.3-6.39,7.83-10.52,12.82-.67.12-.19,0-.34.05h0l0,0-.06,0-.14-.07-.26-.15-.52-.31-1-.59-2-1.17-3.8-2.21-6.44-3.77-4.31-2.58-1.16-.73a1.8,1.8,0,0,1-.38-.28,1.5,1.5,0,0,1,.43.19l1.21.64,4.4,2.44,6.49,3.67,3.82,2.19,2,1.16,1,.59.52.3.26.16.14.07.06,0,0,0h0c-.15,0,.33,0-.32.06,4.13-5,7.89-9.48,10.64-12.72l3.27-3.81.91-1A2.24,2.24,0,0,1,454.81,273.26Z" style="fill:#e0e0e0"></path><path d="M433.24,287.51a76.62,76.62,0,0,1-4.77,7.52,76.69,76.69,0,0,1-5.19,7.24,74.71,74.71,0,0,1,4.76-7.53A76.2,76.2,0,0,1,433.24,287.51Z" style="fill:#e0e0e0"></path><path d="M458.92,296.16a75.54,75.54,0,0,1-6.88-5.6,76.71,76.71,0,0,1-6.55-6,76.4,76.4,0,0,1,6.89,5.6A77.43,77.43,0,0,1,458.92,296.16Z" style="fill:#e0e0e0"></path><polygon points="335.14 226.84 310.48 221.64 306.84 205.94 331.5 211.15 335.14 226.84" style="fill:#f5f5f5"></polygon><path d="M331.5,211.15a3.71,3.71,0,0,1-.67.57l-1.95,1.45c-1.68,1.21-4.05,2.9-6.79,4.82l-.15.11-.15-.12-3-2.32c-3.35-2.63-6.37-5-8.53-6.79l-2.55-2.1a4.82,4.82,0,0,1-.89-.83,5.31,5.31,0,0,1,1,.67l2.65,2c2.23,1.68,5.28,4,8.63,6.67l3,2.34h-.3c2.76-1.9,5.17-3.53,6.89-4.68l2-1.32A3.15,3.15,0,0,1,331.5,211.15Z" style="fill:#e0e0e0"></path><path d="M317.79,215.09a23.86,23.86,0,0,1-3.49,3.47,24.43,24.43,0,0,1-3.82,3.08,46.09,46.09,0,0,1,7.31-6.55Z" style="fill:#e0e0e0"></path><path d="M335.14,226.85a55.78,55.78,0,0,1-5.41-5.36,53.73,53.73,0,0,1-5-5.71,56.87,56.87,0,0,1,5.4,5.35A56.75,56.75,0,0,1,335.14,226.85Z" style="fill:#e0e0e0"></path><polygon points="199.7 217.44 175.04 212.23 171.4 196.53 196.06 201.74 199.7 217.44" style="fill:#f5f5f5"></polygon><path d="M196.06,201.74s-.22.23-.67.57l-1.95,1.45c-1.68,1.22-4.05,2.9-6.79,4.82l-.15.11-.15-.11-3-2.33c-3.35-2.63-6.37-5-8.53-6.79l-2.55-2.1a5.3,5.3,0,0,1-.89-.83,5.31,5.31,0,0,1,1,.67l2.65,2c2.23,1.69,5.28,4,8.63,6.67l3,2.34h-.3c2.76-1.9,5.17-3.53,6.89-4.67l2-1.33A3.66,3.66,0,0,1,196.06,201.74Z" style="fill:#e0e0e0"></path><path d="M182.35,205.68a24.08,24.08,0,0,1-3.48,3.47,23.36,23.36,0,0,1-3.83,3.08,46.09,46.09,0,0,1,7.31-6.55Z" style="fill:#e0e0e0"></path><path d="M199.7,217.44a54.4,54.4,0,0,1-5.41-5.36,53.73,53.73,0,0,1-5-5.71,56.32,56.32,0,0,1,5.4,5.36A56.07,56.07,0,0,1,199.7,217.44Z" style="fill:#e0e0e0"></path></g><g id="freepik--Floor--inject-54"><path d="M473.85,453.65c0,.15-100.23.26-223.84.26s-223.86-.11-223.86-.26,100.21-.26,223.86-.26S473.85,453.51,473.85,453.65Z" style="fill:#263238"></path></g><g id="freepik--Character--inject-54"><path d="M264.34,184.64c-.13-5.9-1.39-18-2.65-29a22.79,22.79,0,0,0-23.41-20.18l-1.18,0c-12.69,1.18-18.78,12.61-17.26,25.27l2.9,40.56.1.37,8.95,16.22L246,230.73l7.39-11.32-.53-11-.44-9.23S264.6,196.87,264.34,184.64Z" style="fill:#ffbe9d"></path><path d="M252.45,199.18a28.41,28.41,0,0,1-16.08-4s4.06,8.67,16.22,7.15Z" style="fill:#eb996e"></path><path d="M258.55,166.52a1.75,1.75,0,0,1-1.62,1.82,1.68,1.68,0,0,1-1.86-1.51,1.74,1.74,0,0,1,1.62-1.82A1.67,1.67,0,0,1,258.55,166.52Z" style="fill:#263238"></path><path d="M259.43,161.05c-.21.23-1.56-.7-3.44-.63s-3.22,1.05-3.44.83.11-.52.69-1a4.81,4.81,0,0,1,2.74-.94,4.57,4.57,0,0,1,2.75.78C259.32,160.53,259.53,160.94,259.43,161.05Z" style="fill:#263238"></path><path d="M242,166.6a1.74,1.74,0,0,1-1.62,1.82,1.67,1.67,0,0,1-1.85-1.51,1.74,1.74,0,0,1,1.62-1.82A1.66,1.66,0,0,1,242,166.6Z" style="fill:#263238"></path><path d="M240.7,161.15c-.19.26-1.64-.52-3.5-.25s-3.08,1.4-3.32,1.2.05-.53.58-1a4.73,4.73,0,0,1,2.62-1.24,4.58,4.58,0,0,1,2.82.48C240.53,160.66,240.79,161,240.7,161.15Z" style="fill:#263238"></path><path d="M248.11,176.37a12.32,12.32,0,0,1,3-.66c.48-.06.93-.17,1-.5a2.47,2.47,0,0,0-.37-1.41l-1.54-3.61c-2.15-5.13-3.72-9.36-3.51-9.44s2.11,4,4.26,9.14c.52,1.26,1,2.47,1.48,3.63a2.76,2.76,0,0,1,.32,1.87,1.23,1.23,0,0,1-.77.73,3.28,3.28,0,0,1-.81.14A12.45,12.45,0,0,1,248.11,176.37Z" style="fill:#263238"></path><path d="M240.68,153c-.17.52-2.05.34-4.25.68s-4,1-4.26.55c-.14-.21.15-.7.86-1.22a7,7,0,0,1,3.13-1.22,7.12,7.12,0,0,1,3.35.28C240.33,152.41,240.75,152.8,240.68,153Z" style="fill:#263238"></path><path d="M258.88,153.79c-.32.44-1.63,0-3.19.07s-2.86.39-3.18-.05c-.14-.21.06-.65.62-1.07a4.58,4.58,0,0,1,5.13,0C258.82,153.15,259,153.58,258.88,153.79Z" style="fill:#263238"></path><path d="M221.15,169.77c-.21-.08-8.48-2.2-7.93,6.15S222,182,222,181.75,221.15,169.77,221.15,169.77Z" style="fill:#ffbe9d"></path><path d="M219.28,178.76s-.14.11-.38.24a1.47,1.47,0,0,1-1.09.09c-.9-.26-1.73-1.61-1.87-3.11a4.67,4.67,0,0,1,.27-2.11,1.67,1.67,0,0,1,1-1.19.74.74,0,0,1,.88.34c.13.23.08.4.13.41s.17-.15.08-.49a1,1,0,0,0-.36-.51,1.07,1.07,0,0,0-.82-.15,2,2,0,0,0-1.43,1.39,4.8,4.8,0,0,0-.35,2.36c.16,1.68,1.12,3.19,2.35,3.46a1.53,1.53,0,0,0,1.32-.31C219.27,179,219.31,178.77,219.28,178.76Z" style="fill:#eb996e"></path><path d="M262.56,141.32a4.26,4.26,0,0,0-3.32-3.3,3.81,3.81,0,0,0-6.1-4.23,3.91,3.91,0,0,0-5.44-3.31,3.3,3.3,0,0,0-6.23-1.59,5.68,5.68,0,0,0-8.87-.42,7.27,7.27,0,0,0-8.68,4.19,6.93,6.93,0,0,0-5.91,5,5,5,0,0,0-3.46,8,3.73,3.73,0,0,0-.57,5.92,3.67,3.67,0,0,0,.32,6.63c-1.23.19-1.66,1.83-1.26,3a35.62,35.62,0,0,0,1.86,3.21c.43.93.58,2,.95,2.91a6.64,6.64,0,0,0,4.08,3.81l-.21.25c-.18,1.08,1.33,1.77,2.33,1.31a5.47,5.47,0,0,0,2.08-2.46,12.32,12.32,0,0,0,1.64-3.36,2.91,2.91,0,0,0-1.26-3.25,4.35,4.35,0,0,0,2.53-3.53,13,13,0,0,0-.41-4.52L225.22,149a8.36,8.36,0,0,0,7.05-5,4.78,4.78,0,0,0,6.88-1.93,6.23,6.23,0,0,0,7.7,3.59c-.27,1.74,2.89,3.24,4.61,3.64a6.13,6.13,0,0,0,3.8-.87s3,1.63,4.57.94,3.6-2.77,2.51-4.39A7.65,7.65,0,0,0,262.56,141.32Z" style="fill:#263238"></path><path d="M213.55,151.53c.08,0,.15.57.87,1.05a1.56,1.56,0,0,0,1.37.2,1.7,1.7,0,0,0,1.13-1.27l.08-.5.4.33a2.18,2.18,0,0,0,3.53-2l-.08-.49.46.17A2.18,2.18,0,0,0,223,149a2.22,2.22,0,0,0,1-.93,5.74,5.74,0,0,0,.38-1.24c.05,0,.27.52-.06,1.39a2.52,2.52,0,0,1-1.1,1.22,2.68,2.68,0,0,1-2.1.18l.38-.32a2.78,2.78,0,0,1-1.53,2.92,2.82,2.82,0,0,1-2.95-.4l.48-.18a2.2,2.2,0,0,1-1.57,1.65,2,2,0,0,1-1.73-.38C213.42,152.2,213.5,151.5,213.55,151.53Z" style="fill:#455a64"></path><path d="M212.56,159.58a5.69,5.69,0,0,0,.9.32,2,2,0,0,0,2.07-1l.16-.3.24.24a2.24,2.24,0,0,0,2.15.53,2.18,2.18,0,0,0,1.5-2v-.55l.48.29a1.38,1.38,0,0,0,.39.16,1.53,1.53,0,0,0,1.67-.62,1.6,1.6,0,0,0,0-1.66l-.33-.51.59.07a2.66,2.66,0,0,0,1.92-.54,2.61,2.61,0,0,0,.89-1.3,5.82,5.82,0,0,0,.15-1.47,1.92,1.92,0,0,1,.18,1.55,2.83,2.83,0,0,1-.93,1.59,3.09,3.09,0,0,1-2.27.73l.27-.44a2.16,2.16,0,0,1,0,2.3,2.13,2.13,0,0,1-2.35.91,1.76,1.76,0,0,1-.56-.24l.48-.26a2.75,2.75,0,0,1-2,2.56,2.7,2.7,0,0,1-2.66-.75l.39-.06a2.11,2.11,0,0,1-1.33,1,2.35,2.35,0,0,1-1.24,0C212.74,160,212.53,159.59,212.56,159.58Z" style="fill:#455a64"></path><path d="M246.6,130.28a3.21,3.21,0,0,0-1-.51,1.72,1.72,0,0,0-1.22.11,1.79,1.79,0,0,0-1,1.24l-.1.48-.27-.42a3.05,3.05,0,0,0-2.62-1.36,3,3,0,0,0-2.69,2.19l-.14.56-.36-.44a3.73,3.73,0,0,0-2.94-1.3,3.57,3.57,0,0,0-2.91,1.76,3.87,3.87,0,0,0-.48,1.37l0,.34-.34-.07a3.57,3.57,0,0,0-3.92,2,3.64,3.64,0,0,0,.72,3.88l.33.34-.45.09a4,4,0,0,0-2.46,1.69,3.85,3.85,0,0,0-.62,2.23,6,6,0,0,0,.51,2s-.16-.13-.34-.46a3.75,3.75,0,0,1-.46-1.54,4.08,4.08,0,0,1,.57-2.47,4.27,4.27,0,0,1,2.69-2l-.12.42a4,4,0,0,1,3.69-6.85l-.38.27a4.07,4.07,0,0,1,.56-1.62,4.16,4.16,0,0,1,3.43-2.05,4.29,4.29,0,0,1,3.41,1.54l-.51.11a3.4,3.4,0,0,1,6.21-.89l-.36.06a2.08,2.08,0,0,1,1.24-1.44,1.94,1.94,0,0,1,1.4,0,1.79,1.79,0,0,1,.73.47C246.57,130.18,246.61,130.27,246.6,130.28Z" style="fill:#455a64"></path><path d="M248,179.72a2.27,2.27,0,0,0-2.44.22,2.87,2.87,0,0,0-1.06,1.91,1.46,1.46,0,0,0,.5,1.5,3.21,3.21,0,0,0,2.64.14c1.11-.75,1.66-2.88.36-3.77" style="fill:#eb996e"></path><path d="M247.76,183.47s-.09.14-.32.29a2.16,2.16,0,0,1-1.16.37,3.51,3.51,0,0,1-.83-.11,2.3,2.3,0,0,1-.46-.16,1.52,1.52,0,0,1-.44-.34,1.31,1.31,0,0,1-.32-.5,4.88,4.88,0,0,1-.12-.55,3.11,3.11,0,0,1,.06-1.17,2.74,2.74,0,0,1,1.35-1.77,2.33,2.33,0,0,1,1.81-.21c1,.33,1.29,1,1.23,1a3.6,3.6,0,0,0-1.31-.68,2.06,2.06,0,0,0-1.49.27,2.33,2.33,0,0,0-1.08,1.48,2.51,2.51,0,0,0-.06,1,2.34,2.34,0,0,0,.09.46.73.73,0,0,0,.2.33,1.23,1.23,0,0,0,.28.25,2.15,2.15,0,0,0,.38.15,3,3,0,0,0,.72.16,2.44,2.44,0,0,0,1.06-.18C247.6,183.49,247.74,183.44,247.76,183.47Z" style="fill:#263238"></path><path d="M319.54,307a33.66,33.66,0,0,0,7-.37,16,16,0,0,0,4.64-2.09s5.06.71,5.87-.43a4.22,4.22,0,0,0,.76-2.42l3.72-.46,3.37.64,1.86,2.26s1.39,0,1.45-.84c0,0,1.86-.84,1.68-1.42s-1.2-3.37-1.2-3.37l-1.41-3s-9.18-.59-9.53-.35-12,5.63-12,5.63l-4.3,1Z" style="fill:#eb996e"></path><path d="M324.31,292l14.55-3.27L349,288.2s8.66,4,8.42,7.62l1.81,1s-.15,2.69-2.31,2.1a22.75,22.75,0,0,1-3.08-1.15l2.32,3.55a3.38,3.38,0,0,1-3.21.06c-.72-.34-5.84-4.21-5.84-4.21l-4.32-.12s-8,5.51-11.75,6.11-10.07-.68-10.07-.68Z" style="fill:#ffbe9d"></path><path d="M356.94,298.89c0-.06.37.06,1,0a1.23,1.23,0,0,0,.81-.6,2.61,2.61,0,0,0,.24-1.38l.09.14-6.28-4.14-1.89-1.24c-.59-.38-1.25-.81-1.72-1.07a.1.1,0,0,0,0,0h-1.79l-1.67,0a21.09,21.09,0,0,1-3.3-.09,20.41,20.41,0,0,1,3.26-.29l1.65-.08.92,0,.48,0h.37a1,1,0,0,1,.22,0,18.82,18.82,0,0,1,1.87,1.11l1.9,1.23c2.43,1.61,4.61,3.12,6.21,4.27l.08.05v.09a2.85,2.85,0,0,1-.37,1.58,1.43,1.43,0,0,1-1.05.65,1.77,1.77,0,0,1-.75-.07C357,298.94,356.93,298.91,356.94,298.89Z" style="fill:#eb996e"></path><path d="M356,301.06a10.28,10.28,0,0,1-1.52-1.77c-.89-1.13-2.09-2.72-3.39-4.5l0,0-.17-.14c-.44-.34-.88-.66-1.32-.95a7.6,7.6,0,0,0-.65-.4,1.68,1.68,0,0,0-.63-.21,19.86,19.86,0,0,0-2.55-.25,13.22,13.22,0,0,1-2.4-.19,9.25,9.25,0,0,1,2.41-.19,17,17,0,0,1,2.63.14,2.49,2.49,0,0,1,.79.25c.23.12.46.26.69.41.45.29.91.62,1.36,1l.18.14,0,0,0,0c1.3,1.79,2.45,3.41,3.26,4.6A9.88,9.88,0,0,1,356,301.06Z" style="fill:#eb996e"></path><path d="M413,409.94l.34,26.93s27.37,6.75,27.91,11.72l-52.07,4.48-2.25-41.94Z" style="fill:#BB86FC"></path><g style="opacity:0.6000000000000001"><path d="M397.06,435.39a2.14,2.14,0,0,0-1.35,2.51,2,2,0,0,0,2.47,1.36,2.26,2.26,0,0,0,1.42-2.66,2.13,2.13,0,0,0-2.73-1.13" style="fill:#fff"></path></g><g style="opacity:0.6000000000000001"><path d="M389.15,453.07l-.23-4.22,50.44-2.58a3.61,3.61,0,0,1,2.16,2.68Z" style="fill:#fff"></path></g><path d="M414.15,436.56c0,.26-1.27.44-2.48,1.32s-1.83,2-2.07,1.89.06-1.58,1.55-2.62S414.19,436.33,414.15,436.56Z" style="fill:#263238"></path><path d="M419.73,438.56c.07.25-1,.73-1.83,1.85s-1,2.28-1.26,2.28-.49-1.43.55-2.81S419.71,438.32,419.73,438.56Z" style="fill:#263238"></path><path d="M423.16,445c-.23.06-.65-1.2-.06-2.62s1.75-2,1.87-1.84-.59,1-1.05,2.17S423.41,444.93,423.16,445Z" style="fill:#263238"></path><path d="M413.39,430.44c-.1.23-1.28-.06-2.72.11s-2.54.67-2.68.46.89-1.17,2.59-1.35S413.5,430.23,413.39,430.44Z" style="fill:#263238"></path><g style="opacity:0.30000000000000004"><polygon points="413.04 415.27 413.1 420.07 387.53 422.81 387.19 416.77 413.04 415.27"></polygon></g><path d="M413.22,425a4.91,4.91,0,0,1-2.62.12,11.9,11.9,0,0,1-2.77-.71,12.58,12.58,0,0,1-1.54-.73,3.13,3.13,0,0,1-.82-.57,1.1,1.1,0,0,1-.18-1.35,1.4,1.4,0,0,1,1.09-.64,3.27,3.27,0,0,1,1,.09,9.22,9.22,0,0,1,4.14,1.94c1.27,1.07,1.73,2,1.64,2.05s-.74-.68-2-1.54a10.52,10.52,0,0,0-2.4-1.2,9.14,9.14,0,0,0-1.52-.39c-.56-.12-1-.1-1.16.15-.05.09-.05.13.07.29a2.82,2.82,0,0,0,.6.42,12.65,12.65,0,0,0,1.42.72,14.22,14.22,0,0,0,2.57.85A17.33,17.33,0,0,1,413.22,425Z" style="fill:#263238"></path><path d="M412.9,425.38a4.25,4.25,0,0,1-.81-2.49,8.72,8.72,0,0,1,.22-2.88,9.08,9.08,0,0,1,.59-1.62,2.18,2.18,0,0,1,1.6-1.4,1.23,1.23,0,0,1,1.13.68,3.74,3.74,0,0,1,.32.94,5.92,5.92,0,0,1,.08,1.77,6.09,6.09,0,0,1-1,2.75c-1,1.4-2,1.76-2,1.67s.77-.66,1.49-2a6.19,6.19,0,0,0,.71-2.5,6,6,0,0,0-.12-1.51c-.11-.55-.34-1-.55-.92s-.68.45-.87.9a8,8,0,0,0-.58,1.45,9.48,9.48,0,0,0-.38,2.63C412.72,424.4,413,425.34,412.9,425.38Z" style="fill:#263238"></path><path d="M282.55,317.54s84.78-14.07,88.56-14.66c14.53-2.24,31.12-.46,36.65,10,0,0,4.1,9.64,4.89,24.08.7,12.81,5.79,88.75,5.79,88.75l-35,5.83-11.51-84h0l-19.75,3.7c1.11-.13-51.26,9.28-67.14,10.89-12.23,1.24-26.31-5.35-29.13-16.25-1.85-7.12-5.86-26.95-5.86-26.95Z" style="fill:#263238"></path><path d="M380.23,335.87a30.73,30.73,0,0,0-8.07,11.36,6.46,6.46,0,0,1,.55-2,20.64,20.64,0,0,1,5.8-8.16A6.33,6.33,0,0,1,380.23,335.87Z" style="fill:#455a64"></path><path d="M221.57,194.88l-1.48,6.37,34.35,21.35L252.91,212a53,53,0,0,0-10.48-8.32A100.64,100.64,0,0,0,221.57,194.88Z" style="fill:#f5f5f5"></path><path d="M218.81,203.17s-10.57,22.4-11.33,30.91,2.17,36.78,2.17,36.78l47.68,54.4,47.6,3.16S282.4,281,277.36,271.8s-22-51.1-22-51.1a26.45,26.45,0,0,0-6-9.27c-6.45-6.84-19-11.06-30.24-13.32Z" style="fill:#BB86FC"></path><path d="M237,212.69c7.07.82,16.15,6.16,19.3,18.58l3,15.35,15.24,30.94,49.93,14.25L318,311.37s-49.46-3.89-55.88-5.57-33-39.49-33-39.49-13.31-23-9.91-39.95C220.86,217.87,228.24,211.66,237,212.69Z" style="fill:#BB86FC"></path><path d="M237,212.69l-1.2-.05a16.16,16.16,0,0,0-3.48.26,15.83,15.83,0,0,0-5.23,2,16.36,16.36,0,0,0-5.36,5.38,17.1,17.1,0,0,0-1.89,4.12,8.6,8.6,0,0,0-.32,1.16,8.11,8.11,0,0,0-.25,1.21c-.11.83-.23,1.67-.35,2.54a44.18,44.18,0,0,0,.73,11.27,73.5,73.5,0,0,0,3.58,12.46,100.77,100.77,0,0,0,6.05,13.11h0c3.87,5.43,8.06,11.15,12.58,17.07a223.63,223.63,0,0,0,14.89,17.94,25.19,25.19,0,0,0,4.58,3.94,8.7,8.7,0,0,0,2.89.79c1,.15,2.05.32,3.09.44,4.15.54,8.38,1,12.68,1.4,8.58.85,17.41,1.62,26.41,2.38l11.65,1-.28.18q3.31-10,6.49-19.56l.18.33-49.93-14.28-.09,0-.05-.1c-5.66-11.53-10.76-21.92-15.19-31v0c-.66-3.38-1.28-6.58-1.88-9.61a59.56,59.56,0,0,0-2-8.46,24.55,24.55,0,0,0-7.72-11.24,22,22,0,0,0-7.65-4,17.72,17.72,0,0,0-2.19-.51l-.76-.14s.26,0,.76.09a16.29,16.29,0,0,1,2.22.46,21.43,21.43,0,0,1,7.74,4,24.63,24.63,0,0,1,7.87,11.29,60.11,60.11,0,0,1,2,8.49q.92,4.54,1.92,9.61v-.05l15.27,30.92-.14-.12,49.94,14.22.26.07-.08.26q-3.18,9.57-6.48,19.57l-.07.2-.21,0-11.64-.95c-9-.76-17.84-1.54-26.43-2.39-4.29-.43-8.53-.87-12.69-1.41-1-.12-2.08-.3-3.11-.45-.51-.07-1-.19-1.54-.29a4.19,4.19,0,0,1-1.51-.56,25.36,25.36,0,0,1-4.69-4,225.35,225.35,0,0,1-14.91-18c-4.51-5.93-8.69-11.66-12.55-17.11h0a101,101,0,0,1-6-13.2,73.89,73.89,0,0,1-3.55-12.52,43.91,43.91,0,0,1-.68-11.37c.12-.87.24-1.73.36-2.56a8.4,8.4,0,0,1,.26-1.23,9.36,9.36,0,0,1,.33-1.18,18.17,18.17,0,0,1,1.94-4.17,16.68,16.68,0,0,1,5.47-5.4,16,16,0,0,1,5.31-2,16.86,16.86,0,0,1,3.5-.2C236.57,212.64,237,212.69,237,212.69Z" style="fill:#263238"></path><path d="M266,289.55a7.4,7.4,0,0,1,.78-2.06,29.37,29.37,0,0,1,2.73-4.56,28.76,28.76,0,0,1,3.52-4,7.31,7.31,0,0,1,1.72-1.37c.11.12-2.39,2.35-4.81,5.67S266.12,289.62,266,289.55Z" style="fill:#263238"></path><path d="M257.22,224.66a10,10,0,0,1-1.21-1.27c-.37-.42-.83-.94-1.4-1.5s-1.17-1.25-1.92-1.92a57.81,57.81,0,0,0-5.39-4.55,65.84,65.84,0,0,0-7.31-4.6A80.06,80.06,0,0,0,225.44,205c-1.93-.58-3.51-1-4.6-1.29a11.54,11.54,0,0,1-1.68-.49,10.58,10.58,0,0,1,1.73.29c1.11.21,2.7.59,4.65,1.12a71.64,71.64,0,0,1,14.7,5.77,60.09,60.09,0,0,1,7.35,4.68A51,51,0,0,1,253,219.7c.74.69,1.33,1.39,1.87,2s1,1.13,1.34,1.57A13.7,13.7,0,0,1,257.22,224.66Z" style="fill:#263238"></path><path d="M403.5,238.52a1.72,1.72,0,0,0-2.14,1.16L384,297.75l-58.17,9.07a3.45,3.45,0,0,0-2.87,3.94l63.71-9.94h0v0l18-60.12A1.73,1.73,0,0,0,403.5,238.52Z" style="fill:#e0e0e0"></path><path d="M403.5,238.52a1.59,1.59,0,0,1,1,.69,1.75,1.75,0,0,1,.24,1.45c-.16.56-.35,1.22-.57,2-.87,3-2.13,7.29-3.74,12.77-3.27,11-7.92,26.69-13.5,45.47v-.07l0,.23-.23,0h0l.18-.16h0l-.06.22-.23-.06h.1l-62.52,9.79L323,311l-.26,0-.05-.26a3.74,3.74,0,0,1,2.06-3.92,4.21,4.21,0,0,1,1.12-.33l1.08-.17,2.15-.34,8.5-1.32L354,302.17,384,297.53l-.19.16,13.24-44,3.75-12.3.58-1.87a1.79,1.79,0,0,1,1-1,1.57,1.57,0,0,1,1.15,0,2,2,0,0,0-1.12.09,1.7,1.7,0,0,0-.93,1l-.55,1.88c-.84,2.86-2.06,7-3.62,12.33-3.15,10.63-7.65,25.8-13.06,44l0,.14-.14,0-29.93,4.7-16.42,2.56-8.5,1.33-2.15.34a7.91,7.91,0,0,0-2.05.45,3.19,3.19,0,0,0-1.77,3.36l-.31-.23,1.19-.18,62.54-9.72h.11l-.29.16h0l0-.14.14,0h0l-.19.27v-.09l0,0c5.65-18.76,10.36-34.43,13.67-45.42L404,242.57l.59-1.94a1.69,1.69,0,0,0-.19-1.38A1.93,1.93,0,0,0,403.5,238.52Z" style="fill:#263238"></path><path d="M386.69,300.82c-.13.08-.74-.63-1.5-1.5s-1.37-1.59-1.27-1.7.9.45,1.67,1.35S386.81,300.74,386.69,300.82Z" style="fill:#455a64"></path><path d="M377.09,300c0-.07.26-.26.66,0a.75.75,0,0,1,.42.71.91.91,0,0,1-.65.8.9.9,0,0,1-.95-.35.76.76,0,0,1-.07-.82c.25-.43.61-.37.59-.3s-.19.17-.24.44a.4.4,0,0,0,.1.37.42.42,0,0,0,.43.14.46.46,0,0,0,.3-.33.37.37,0,0,0-.14-.35C377.32,300,377.12,300,377.09,300Z" style="fill:#455a64"></path><path d="M380.81,299.38c-.05-.07.25-.26.66,0a.73.73,0,0,1,.41.71.89.89,0,0,1-.64.8.9.9,0,0,1-1-.35.8.8,0,0,1-.07-.82c.25-.43.62-.37.6-.3s-.2.17-.25.44a.41.41,0,0,0,.11.37.41.41,0,0,0,.72-.19c0-.13,0-.24-.14-.35S380.84,299.44,380.81,299.38Z" style="fill:#455a64"></path><polygon points="237.28 375.85 213.67 453.43 222.28 453.52 254.19 375.05 237.28 375.85" style="fill:#263238"></polygon><path d="M338.84,365.29c-.06,0,26.73,88,26.73,88l8.54.12L357.6,363.52Z" style="fill:#263238"></path><path d="M200.37,252.61a9.11,9.11,0,0,0-9.74-1.71c-6.61,2.83-16.3,8.62-14.12,17.77,2.72,11.41,34,86,44.12,109.93a12,12,0,0,0,11.12,7.31l131.16-1.08a9.68,9.68,0,0,0,9.52-10.94l-4.9-37.26a26.55,26.55,0,0,0-24-23l-84.84-7.53Z" style="fill:#455a64"></path><path d="M216.34,367a.91.91,0,0,1-.08-.26l-.16-.8c-.14-.74-.33-1.77-.58-3.07-.49-2.7-1.18-6.55-2-11.29s-1.84-10.46-2.95-16.75c-.55-3.16-1.13-6.47-1.73-9.9-.29-1.72-.6-3.47-.91-5.24a13.92,13.92,0,0,1-.14-5.54,6.27,6.27,0,0,1,1.28-2.55,7.33,7.33,0,0,1,2.2-1.73,16,16,0,0,1,5.18-1.48c3.49-.38,6.83-.58,10-.82,6.4-.44,12.16-.73,17-.92s8.76-.28,11.47-.32l3.12,0h.82l.27,0-.27,0-.81,0-3.12.13-11.46.48c-4.84.24-10.59.57-17,1-3.19.26-6.56.47-10,.85a15.48,15.48,0,0,0-5,1.43,6,6,0,0,0-3.21,3.94,13.45,13.45,0,0,0,.15,5.32q.45,2.65.9,5.24c.59,3.43,1.15,6.74,1.69,9.9,1.07,6.31,2,12,2.84,16.78s1.43,8.6,1.87,11.32c.21,1.31.37,2.34.49,3.08,0,.33.08.59.11.81A1.1,1.1,0,0,1,216.34,367Z" style="fill:#263238"></path><path d="M366.51,363.52c0,.14-33.89.26-75.68.26s-75.68-.12-75.68-.26,33.88-.27,75.68-.27S366.51,363.37,366.51,363.52Z" style="fill:#263238"></path><path d="M231.42,307.31c-.11.09-10.48-11.82-23.14-26.61s-22.85-26.86-22.74-27,10.47,11.82,23.14,26.61S231.53,307.21,231.42,307.31Z" style="fill:#263238"></path></g><g id="freepik--Emails--inject-54"><rect x="58.19" y="418.32" width="42.57" height="29.49" transform="translate(-96.53 29.48) rotate(-13.16)" style="fill:#fff"></rect><path d="M103.56,442.58s-.06-.19-.15-.53-.22-.88-.38-1.53c-.33-1.36-.81-3.31-1.41-5.79-1.2-5-2.91-12.14-5-20.82l.25.16-41.44,9.74c0,.07.37-.59.19-.31h0v.09l0,.12.06.24.11.48.22,1,.45,1.91c.29,1.26.59,2.52.88,3.77l1.71,7.35c1.12,4.8,2.19,9.42,3.21,13.78l-.29-.18,29.85-6.86,8.56-1.93,2.29-.51.59-.12.22,0-.18.06-.57.14-2.23.55-8.47,2.05-29.95,7.13-.23.05-.06-.23c-1-4.36-2.1-9-3.23-13.78-.57-2.4-1.14-4.85-1.73-7.35-.29-1.24-.58-2.5-.88-3.77l-.45-1.9-.22-1-.11-.48-.06-.24,0-.12v-.09h0c-.18.28.23-.39.19-.32l41.46-9.64.21-.05,0,.2,4.79,21c.56,2.47,1,4.42,1.3,5.77.14.64.24,1.13.32,1.5S103.57,442.59,103.56,442.58Z" style="fill:#263238"></path><path d="M96.53,415.15a3,3,0,0,1-.29.47c-.24.34-.54.77-.9,1.3l-3.4,4.7L80.57,437c-.66.16-.19,0-.34.07h0l0,0-.07,0-.16-.08-.31-.16-.62-.31-1.22-.63-2.4-1.22-4.52-2.32-7.64-4-5.13-2.7-1.38-.76a1.86,1.86,0,0,1-.47-.3,1.72,1.72,0,0,1,.51.2l1.43.67L63.39,428l7.69,3.86,4.53,2.29,2.4,1.22,1.23.62.62.32.31.16.15.08.08,0,0,0h0c-.14,0,.33-.07-.32.08l11.49-15.3,3.54-4.61c.39-.5.72-.9,1-1.23S96.51,415.14,96.53,415.15Z" style="fill:#263238"></path><path d="M72.52,432.86a101.53,101.53,0,0,1-5.08,8.93c-2.93,4.86-5.4,8.74-5.52,8.67A102.08,102.08,0,0,1,67,441.52,101.45,101.45,0,0,1,72.52,432.86Z" style="fill:#263238"></path><path d="M102.63,441.29a99.71,99.71,0,0,1-8.24-6.07,102.19,102.19,0,0,1-7.93-6.48,100.77,100.77,0,0,1,8.25,6.07A100.38,100.38,0,0,1,102.63,441.29Z" style="fill:#263238"></path><rect x="183.81" y="225.31" width="37.86" height="26.23" transform="translate(-15.38 13.99) rotate(-3.81)" style="fill:#fff"></rect><path d="M222.49,250.26s0-.18-.05-.49l-.12-1.4c-.09-1.25-.23-3-.4-5.29-.33-4.56-.81-11.07-1.38-19l.23.2L183,226.86c-.06.06.45-.52.24-.27h0V227l0,.43.06.88.12,1.73c.07,1.16.15,2.3.22,3.44q.23,3.41.45,6.7c.28,4.38.56,8.58.81,12.56l-.25-.23,27.18-1.69,7.79-.45,2.09-.11.54,0h.19l-.16,0-.52.05-2,.16-7.73.58L184.73,253h-.23l0-.23c-.27-4-.55-8.18-.85-12.56-.15-2.19-.3-4.43-.45-6.7-.08-1.13-.15-2.28-.23-3.43l-.12-1.74-.06-.87,0-.44,0-.22v-.19h0l.24-.28,37.78-2.46.21,0v.21c.48,8,.88,14.53,1.16,19.13.13,2.24.23,4,.3,5.25,0,.57.05,1,.07,1.36A2.54,2.54,0,0,1,222.49,250.26Z" style="fill:#263238"></path><path d="M220.29,225.17a2.26,2.26,0,0,1-.32.38l-1,1-3.66,3.64c-3.1,3.05-7.41,7.25-12.19,11.87l-.35,0h0l0,0-.06-.05-.13-.09-.25-.19-.5-.36-1-.73-1.92-1.42-3.63-2.69-6.13-4.58L185,228.82l-1.1-.88q-.37-.3-.36-.33a2,2,0,0,1,.42.25l1.16.79,4.2,3c1.79,1.3,3.88,2.82,6.2,4.49l3.65,2.67c.63.46,1.27.94,1.93,1.41l1,.73.5.36.25.19.12.09.07,0,0,0h0l-.33,0c4.79-4.61,9.14-8.77,12.31-11.76l3.77-3.52,1-.94A1.82,1.82,0,0,1,220.29,225.17Z" style="fill:#263238"></path><path d="M196.66,237.24a80.53,80.53,0,0,1-5.72,7.12,81.56,81.56,0,0,1-6.12,6.79,80.53,80.53,0,0,1,5.72-7.12A81.44,81.44,0,0,1,196.66,237.24Z" style="fill:#263238"></path><path d="M221.87,249a78.4,78.4,0,0,1-6.38-6.5,79.41,79.41,0,0,1-6-6.85,78.4,78.4,0,0,1,6.38,6.5A81.21,81.21,0,0,1,221.87,249Z" style="fill:#263238"></path><rect x="108.93" y="326.29" width="37.86" height="26.23" transform="translate(-176.35 141.92) rotate(-36.37)" style="fill:#fff"></rect><path d="M150.88,338.75l-.31-.39-.85-1.11L146.54,333l-11.38-15.26.29,0L105,340.28c0,.08.1-.69.06-.36h0l0,0,0,0,.06.09.13.18.26.35.52.71,1,1.4c.69.93,1.37,1.85,2,2.77l4,5.41,7.45,10.14-.33-.05,22-16.05,6.33-4.58,1.69-1.21.45-.31.16-.1-.12.11-.41.31-1.63,1.24-6.2,4.64-22,16.34-.19.14-.14-.2-7.48-10.12-4-5.4-2-2.77-1-1.4-.52-.71-.26-.35-.13-.18-.06-.09,0,0,0,0h0c0,.32.06-.45,0-.37l30.52-22.4.17-.13.12.17L146.77,333l3.08,4.26.78,1.11A2.38,2.38,0,0,1,150.88,338.75Z" style="fill:#263238"></path><path d="M135.52,318.79a1.46,1.46,0,0,1-.06.48c-.07.38-.17.83-.28,1.38-.28,1.27-.66,3-1.12,5-1,4.24-2.34,10.1-3.89,16.57-.54.4-.16.11-.28.19h-.15l-.15,0-.31,0-.62,0-1.22-.08-2.38-.16-4.51-.31-7.63-.57-5.14-.42-1.4-.14a1.45,1.45,0,0,1-.48-.09,2.66,2.66,0,0,1,.49,0l1.4.05,5.15.26,7.64.45,4.51.28,2.39.15,1.22.08.61,0,.31,0h.3l-.26.19c1.55-6.46,3-12.3,4-16.53.53-2.05,1-3.74,1.29-5,.14-.54.27-1,.37-1.35A2,2,0,0,1,135.52,318.79Z" style="fill:#263238"></path><path d="M122.1,341.68a78.12,78.12,0,0,1-1,9.08,82.85,82.85,0,0,1-1.5,9,78.16,78.16,0,0,1,1-9.09A81.83,81.83,0,0,1,122.1,341.68Z" style="fill:#263238"></path><path d="M149.67,338a83.53,83.53,0,0,1-8.87-2,79.7,79.7,0,0,1-8.74-2.55,79.52,79.52,0,0,1,8.87,2.05A78.87,78.87,0,0,1,149.67,338Z" style="fill:#263238"></path><rect x="57.29" y="338.33" width="26.23" height="37.86" transform="translate(-292.58 328.51) rotate(-74.32)" style="fill:#fff"></rect><path d="M85.09,375a3,3,0,0,1,.11-.48l.36-1.36c.32-1.21.79-2.93,1.38-5.12l5-18.35.14.26L55.66,339.77l.32-.18h0v.08l0,.1-.06.22-.12.42-.24.84c-.15.56-.31,1.12-.47,1.67-.31,1.12-.62,2.22-.93,3.32-.61,2.19-1.22,4.35-1.81,6.46C51.09,357,50,361,48.87,364.83l-.17-.29L74.89,372l7.5,2.17,2,.59.52.16.18.07-.16,0-.51-.13-2-.52-7.47-2L48.57,365l-.22-.07.06-.23c1.07-3.83,2.2-7.89,3.39-12.12l1.8-6.46c.31-1.1.62-2.2.93-3.32.16-.55.32-1.11.47-1.67l.24-.84.12-.43.06-.21,0-.1v-.08h0c-.28.16.4-.23.33-.18l36.43,10.27.21.06-.06.2c-2.2,7.68-4,14-5.29,18.42-.62,2.16-1.12,3.86-1.47,5-.16.55-.29,1-.39,1.3S85.09,375,85.09,375Z" style="fill:#263238"></path><path d="M91.38,350.61s-.14.11-.42.25l-1.26.63L85,353.7c-3.94,1.85-9.41,4.37-15.46,7.12l-.33-.09h0v0l0,0,0-.06-.09-.13-.17-.26-.35-.51-.68-1-1.34-2L64,353c-1.59-2.38-3-4.53-4.25-6.36l-2.83-4.32-.74-1.19a2.05,2.05,0,0,1-.24-.43s.13.12.32.38.5.68.83,1.13l3,4.22,4.34,6.3L67,356.43l1.35,2,.68,1,.35.51.17.26.09.12.05.07,0,0v0h0l-.31-.09c6-2.75,11.53-5.22,15.52-7l4.73-2.07,1.29-.53A2.15,2.15,0,0,1,91.38,350.61Z" style="fill:#263238"></path><path d="M65.08,354.11a79.4,79.4,0,0,1-7.77,4.81,78.75,78.75,0,0,1-8,4.35,83,83,0,0,1,7.77-4.8A82.72,82.72,0,0,1,65.08,354.11Z" style="fill:#263238"></path><path d="M84.92,373.6a81.39,81.39,0,0,1-3.84-8.26,77.8,77.8,0,0,1-3.37-8.46,81.39,81.39,0,0,1,3.84,8.26A77.8,77.8,0,0,1,84.92,373.6Z" style="fill:#263238"></path><rect x="186.54" y="317.84" width="37.86" height="26.23" transform="translate(-44.8 32.44) rotate(-8.14)" style="fill:#fff"></rect><path d="M226.07,341.26a5,5,0,0,1-.1-.49c-.05-.34-.13-.8-.22-1.38-.19-1.24-.46-3-.8-5.24-.68-4.53-1.64-11-2.81-18.82l.24.17-37.47,5.42c0,.06.42-.56.22-.3h0v.21l0,.21.06.44.13.86.24,1.72c.17,1.15.33,2.28.49,3.41.32,2.26.64,4.47.95,6.65.61,4.34,1.2,8.52,1.76,12.46l-.27-.2,27-3.74,7.73-1,2.07-.26.54-.07h.2l-.17,0-.51.08-2,.32-7.66,1.16-27.1,4-.23,0,0-.23c-.57-3.94-1.17-8.12-1.8-12.46q-.47-3.26-1-6.65c-.16-1.12-.33-2.26-.49-3.4-.08-.57-.16-1.15-.25-1.72l-.12-.87-.06-.43,0-.22,0-.11v-.08h0c-.2.26.26-.36.22-.3l37.48-5.31.21,0,0,.21c1.08,7.9,2,14.41,2.6,19,.3,2.23.53,4,.69,5.21.08.57.13,1,.17,1.35S226.07,341.27,226.07,341.26Z" style="fill:#263238"></path><path d="M222,316.41s-.08.15-.28.4l-.9,1.08-3.37,3.91c-2.86,3.28-6.84,7.79-11.27,12.76-.66.09-.19,0-.34,0h0l0,0,0,0-.07,0-.13-.08-.26-.16-.53-.33-1-.65-2-1.27-3.82-2.41-6.46-4.1-4.33-2.81-1.16-.78c-.27-.19-.4-.29-.39-.31a2,2,0,0,1,.44.22l1.22.7,4.41,2.66,6.52,4L202,331.6l2,1.26,1,.65.52.32.26.17.14.08.06,0,0,0h0c-.15,0,.34,0-.32,0,4.42-5,8.44-9.44,11.38-12.66l3.49-3.79c.38-.41.7-.74,1-1A1.74,1.74,0,0,1,222,316.41Z" style="fill:#263238"></path><path d="M199.32,330.23a79.17,79.17,0,0,1-5.17,7.54,79.73,79.73,0,0,1-5.59,7.23,81.5,81.5,0,0,1,5.17-7.54A83.79,83.79,0,0,1,199.32,330.23Z" style="fill:#263238"></path><path d="M225.35,340.05a79.41,79.41,0,0,1-6.85-6,80.31,80.31,0,0,1-6.5-6.38,80.85,80.85,0,0,1,6.85,6A80.43,80.43,0,0,1,225.35,340.05Z" style="fill:#263238"></path><polygon points="192.36 288.82 159.59 304.92 141.42 290.27 174.19 274.18 192.36 288.82" style="fill:#e0e0e0"></polygon><path d="M192.36,288.82l-.36-.26c-.24-.2-.57-.45-1-.77l-3.7-2.92-13.26-10.53.22,0-32.74,16.15c0,.09.09-.83.05-.44h0l0,0,.07.06.15.12.3.25.61.48,1.19,1,2.37,1.91,4.64,3.74,8.75,7.07-.25,0,23.57-11.43,6.81-3.28,1.83-.87.48-.22.18-.08-.58.31L190,290l-6.69,3.35L159.7,305.13l-.14.07-.12-.1-8.77-7L146,294.32l-2.37-1.91-1.2-1-.6-.49-.3-.24-.16-.12-.07-.06,0,0,0,0h0c0,.39.05-.53.05-.44L174.1,274l.11-.05.11.08,13.23,10.82,3.59,3,.92.77A2.44,2.44,0,0,1,192.36,288.82Z" style="fill:#263238"></path><path d="M174.19,274.18a7.7,7.7,0,0,1-.29,1.24c-.25.87-.58,2-1,3.38-.89,3-2.09,7-3.46,11.55l-.06.18h-5.66c-6.17,0-11.75,0-15.79-.08l-4.79-.08a12.2,12.2,0,0,1-1.75-.1,9.75,9.75,0,0,1,1.75-.11l4.79-.08c4,0,9.62-.07,15.79-.07h5.47l-.24.17c1.45-4.56,2.71-8.55,3.64-11.49.45-1.37.83-2.49,1.11-3.34A6.83,6.83,0,0,1,174.19,274.18Z" style="fill:#263238"></path><path d="M162.07,290.92a47.62,47.62,0,0,1-1,7,49.8,49.8,0,0,1-1.5,7,48.75,48.75,0,0,1,1-7.05A49.06,49.06,0,0,1,162.07,290.92Z" style="fill:#263238"></path><path d="M192.36,288.82c0,.14-4.92-.48-10.93-1.39s-10.87-1.76-10.85-1.9,4.92.48,10.93,1.39S192.38,288.68,192.36,288.82Z" style="fill:#263238"></path><polygon points="84.96 452.24 85.82 426.4 112.62 417.59 112.62 392.79 134.74 387.15 142.33 366.77 163.55 362.46 202.42 362.46 221.34 396.31 262.7 395.61 262.7 419.94 312.78 424.42 334.05 441.99 378.85 453.07 84.96 452.24" style="fill:#e0e0e0"></polygon><rect x="190.62" y="366.09" width="45.11" height="31.26" transform="translate(-64.21 43.77) rotate(-10.2)" style="fill:#fff"></rect><path d="M238.15,393.1s-.05-.2-.13-.57l-.31-1.63c-.28-1.46-.67-3.55-1.17-6.21l-4.13-22.31.24.17-44.39,8c0,.07.4-.57.21-.29h0v.12l0,.13,0,.25.09.52.19,1c.12.69.24,1.37.37,2,.24,1.36.48,2.71.72,4l1.41,7.87c.92,5.15,1.81,10.1,2.64,14.77l-.27-.19,32-5.64,9.16-1.58,2.45-.41.63-.1.23,0s-.06,0-.19,0l-.61.13-2.39.46-9.08,1.69-32.09,5.89-.23.05-.05-.24c-.84-4.66-1.74-9.61-2.67-14.76-.46-2.57-.94-5.2-1.42-7.87-.24-1.33-.48-2.68-.73-4l-.36-2.05-.19-1-.09-.51-.05-.26,0-.13v-.1h0c-.19.27.25-.37.21-.31l44.41-7.93.21,0,0,.2c1.64,9.38,3,17.09,3.94,22.49.45,2.65.8,4.72,1.05,6.17.11.69.2,1.22.27,1.61S238.15,393.1,238.15,393.1Z" style="fill:#263238"></path><path d="M232.21,363.69a2.36,2.36,0,0,1-.33.48l-1,1.32L227,370.27l-12.89,15.67c-.66.12-.19,0-.34.05h0l0,0-.08,0-.16-.1-.32-.18-.64-.37-1.26-.73-2.46-1.42-4.66-2.7-7.87-4.61L191,372.66l-1.42-.88a2.84,2.84,0,0,1-.48-.33,2.34,2.34,0,0,1,.53.24l1.47.8,5.37,3,7.93,4.51,4.67,2.68,2.47,1.42,1.26.72.64.37.32.18.16.1.08,0,0,0h0c-.14,0,.34-.05-.32.07l13-15.57,4-4.68,1.1-1.26C232.06,363.82,232.2,363.67,232.21,363.69Z" style="fill:#263238"></path><path d="M205.83,381.12c.12.08-2.51,4.18-5.87,9.16s-6.19,9-6.31,8.88,2.51-4.19,5.87-9.17S205.71,381,205.83,381.12Z" style="fill:#263238"></path><path d="M237.24,391.69c-.09.11-3.85-3-8.38-6.89s-8.14-7.17-8-7.28,3.84,3,8.38,6.89S237.34,391.58,237.24,391.69Z" style="fill:#263238"></path><rect x="215.11" y="399.58" width="39.98" height="27.7" transform="translate(-69.47 48.15) rotate(-10.2)" style="fill:#ebebeb"></rect><path d="M257.23,423.52a3.38,3.38,0,0,1-.11-.51c-.07-.35-.17-.83-.29-1.45-.24-1.29-.59-3.14-1-5.5-.88-4.75-2.14-11.53-3.67-19.76l.25.17L213,403.59l.2-.29h0v.1l0,.12,0,.22.09.46.16.91c.11.6.22,1.21.32,1.81.22,1.2.43,2.39.65,3.57q.63,3.56,1.25,7c.81,4.57,1.6,8.95,2.33,13.09l-.27-.19,28.33-5,8.12-1.4,2.17-.36.57-.09.2,0s-.05,0-.17.05l-.53.11-2.12.41-8,1.51-28.45,5.23-.23.05,0-.24c-.75-4.13-1.55-8.51-2.37-13.08-.42-2.28-.84-4.61-1.26-7-.22-1.19-.43-2.38-.65-3.58-.11-.6-.21-1.2-.32-1.81l-.17-.91-.08-.45,0-.23,0-.12v-.1h0c-.19.26.26-.38.21-.31l39.36-7,.21,0,0,.2c1.45,8.31,2.64,15.14,3.48,19.94.4,2.34.71,4.18.93,5.47.1.6.17,1.07.23,1.42A3,3,0,0,1,257.23,423.52Z" style="fill:#263238"></path><path d="M252,397.45s-.08.16-.29.43l-.9,1.17-3.42,4.25c-2.9,3.57-6.93,8.49-11.41,13.89l-.34.06h0l0,0-.07,0-.14-.08-.29-.17-.56-.32-1.12-.65-2.19-1.26-4.12-2.4-7-4.08-4.67-2.8-1.26-.78a1.86,1.86,0,0,1-.42-.3,2,2,0,0,1,.47.21l1.31.7,4.76,2.65,7,4,4.14,2.37,2.19,1.25,1.12.65.56.32.29.17.14.08.07,0,0,0h0l-.32.06c4.48-5.41,8.56-10.28,11.53-13.79l3.54-4.15,1-1.11A2.05,2.05,0,0,1,252,397.45Z" style="fill:#263238"></path><path d="M228.59,412.9a90.2,90.2,0,0,1-5.18,8.14,92,92,0,0,1-5.62,7.85,87.53,87.53,0,0,1,5.19-8.14A88.88,88.88,0,0,1,228.59,412.9Z" style="fill:#263238"></path><path d="M256.43,422.27a89.06,89.06,0,0,1-7.45-6.08,89.78,89.78,0,0,1-7.11-6.48,88.53,88.53,0,0,1,7.45,6.08A89.78,89.78,0,0,1,256.43,422.27Z" style="fill:#263238"></path><rect x="145.82" y="348.61" width="39.98" height="27.7" transform="translate(-61.55 35.08) rotate(-10.2)" style="fill:#fff"></rect><path d="M187.94,372.56a4.82,4.82,0,0,1-.12-.51c-.07-.36-.16-.84-.28-1.45-.25-1.3-.6-3.15-1-5.5-.89-4.76-2.14-11.53-3.67-19.77l.24.17-39.34,7.13c0,.06.4-.57.21-.3h0v.09l0,.11,0,.23.08.45.17.91c.1.61.21,1.21.32,1.81.22,1.2.43,2.4.64,3.58.43,2.37.84,4.69,1.25,7,.82,4.56,1.6,8.94,2.34,13.08l-.28-.19,28.34-5L185,373l2.17-.36.57-.09a.59.59,0,0,1,.2,0l-.17,0-.54.11-2.11.41-8.05,1.51-28.44,5.24-.23,0-.05-.23c-.75-4.14-1.54-8.52-2.37-13.08-.41-2.29-.83-4.61-1.26-7-.21-1.18-.42-2.38-.64-3.58l-.33-1.81-.16-.9-.08-.46,0-.23,0-.11v-.09h0c-.19.27.25-.37.21-.31l39.36-7,.21,0,0,.21c1.45,8.3,2.64,15.14,3.48,19.93.39,2.34.71,4.18.92,5.47l.24,1.42A2.94,2.94,0,0,1,187.94,372.56Z" style="fill:#263238"></path><path d="M182.68,346.48a2.24,2.24,0,0,1-.29.44l-.91,1.17-3.41,4.25c-2.9,3.57-6.93,8.48-11.41,13.89-.66.12-.19,0-.34,0h0l0,0-.07-.05-.15-.08-.28-.16-.56-.33-1.12-.64-2.19-1.27-4.13-2.39-7-4.09-4.68-2.79-1.26-.78c-.28-.19-.43-.29-.42-.31a2.41,2.41,0,0,1,.48.22l1.3.69,4.76,2.65,7,4,4.15,2.37,2.19,1.26,1.11.64.57.33.28.16.15.08.07,0,0,0h0c-.14,0,.34-.05-.32.06,4.48-5.4,8.55-10.28,11.53-13.79l3.54-4.14,1-1.11C182.54,346.6,182.66,346.47,182.68,346.48Z" style="fill:#263238"></path><path d="M159.3,361.93a92.92,92.92,0,0,1-5.19,8.14,88.88,88.88,0,0,1-5.61,7.85,90.2,90.2,0,0,1,5.18-8.14A89.48,89.48,0,0,1,159.3,361.93Z" style="fill:#263238"></path><path d="M187.13,371.3a87.55,87.55,0,0,1-7.44-6.08,85.63,85.63,0,0,1-7.11-6.48,92,92,0,0,1,7.45,6.09A87.35,87.35,0,0,1,187.13,371.3Z" style="fill:#263238"></path><rect x="173.84" y="376.65" width="32.1" height="46.34" transform="translate(-238.52 511.07) rotate(-79.15)" style="fill:#f5f5f5"></rect><path d="M209.63,419.94s0-.21.09-.59.17-1,.3-1.69c.27-1.49.66-3.64,1.16-6.37,1-5.5,2.5-13.36,4.28-22.92l.17.25L170.12,380l.3-.2h0v.05l0,.07,0,.13-.05.27-.1.52-.2,1c-.14.7-.27,1.4-.41,2.09-.26,1.39-.53,2.77-.79,4.14-.53,2.74-1,5.43-1.55,8.07-1,5.28-2,10.34-2.92,15.12l-.18-.27,32.72,6.39,9.37,1.86,2.49.5.65.14.23.06-.21,0-.62-.11-2.47-.44L197,417.64l-32.92-6.19-.24,0,0-.23c.91-4.79,1.87-9.86,2.88-15.14.5-2.64,1-5.33,1.54-8.07.26-1.36.53-2.74.79-4.13.14-.7.27-1.4.4-2.09l.21-1.06.1-.52.05-.27,0-.13v-.1h0l.31-.21,45.49,8.77.21,0,0,.2c-1.89,9.59-3.44,17.48-4.52,23-.55,2.71-1,4.83-1.27,6.31l-.33,1.64C209.68,419.77,209.63,419.94,209.63,419.94Z" style="fill:#263238"></path><path d="M214.79,389.55a2.34,2.34,0,0,1-.5.34l-1.47.88-5.47,3.17L189.23,404.2c-.67-.12-.19,0-.34-.07h0v0l0,0-.06-.08-.12-.15-.24-.29-.48-.59L187,401.8l-1.84-2.28-3.46-4.31c-2.2-2.74-4.18-5.21-5.85-7.31s-2.95-3.73-3.91-5l-1-1.36a2.86,2.86,0,0,1-.34-.5,3,3,0,0,1,.42.43l1.12,1.3,4,4.86,5.94,7.24,3.49,4.29,1.84,2.27.95,1.16.47.59.24.3.12.14.06.08,0,0h0c-.14,0,.34.07-.32-.05l18.2-10.13,5.55-3,1.52-.8A2.9,2.9,0,0,1,214.79,389.55Z" style="fill:#263238"></path><path d="M183.07,396.53c.08.12-3.95,3.08-9,6.61s-9.23,6.31-9.31,6.19,3.95-3.08,9-6.61S183,396.41,183.07,396.53Z" style="fill:#263238"></path><path d="M209.28,418.25c-.13.07-2.58-4.28-5.49-9.7s-5.16-9.87-5-9.94,2.58,4.27,5.49,9.7S209.41,418.18,209.28,418.25Z" style="fill:#263238"></path><rect x="270.34" y="404.15" width="32.1" height="46.34" transform="translate(-187.19 628.16) rotate(-79.15)" style="fill:#f5f5f5"></rect><path d="M306.12,447.44s0-.21.09-.6.17-1,.3-1.68c.28-1.49.67-3.64,1.17-6.38,1-5.5,2.49-13.36,4.28-22.91l.16.25-45.51-8.67.3-.21h0v.12l0,.13-.05.26-.1.53-.2,1-.4,2.09c-.27,1.39-.53,2.77-.79,4.14-.53,2.73-1.05,5.43-1.56,8.07-1,5.27-2,10.34-2.91,15.12l-.19-.28,32.73,6.4,9.36,1.85,2.5.51.65.14.22.06-.2,0-.63-.1-2.46-.45-9.33-1.72L260.57,439l-.23,0,0-.24c.91-4.78,1.88-9.85,2.89-15.13q.75-4,1.54-8.07c.26-1.37.52-2.75.79-4.14.13-.69.27-1.39.4-2.09l.2-1.05.1-.53.05-.26,0-.13v-.12h0c-.27.18.37-.26.31-.22l45.49,8.77.21,0,0,.21c-1.88,9.59-3.43,17.48-4.52,23-.54,2.71-1,4.83-1.26,6.31-.15.7-.26,1.24-.34,1.64S306.12,447.44,306.12,447.44Z" style="fill:#263238"></path><path d="M311.28,417.05a2.41,2.41,0,0,1-.49.34l-1.48.88-5.46,3.16L285.72,431.7l-.34-.07h0l0,0,0,0-.06-.07-.12-.15-.24-.29-.47-.59-.94-1.16L281.66,427l-3.47-4.31-5.85-7.31c-1.62-2.06-2.94-3.74-3.91-5l-1-1.37a2.71,2.71,0,0,1-.34-.5,2.36,2.36,0,0,1,.42.44l1.12,1.3,4,4.85,5.93,7.25,3.5,4.29L283.9,429l.94,1.16.48.59.24.29.12.15.06.08,0,0v0h0l-.32-.06,18.2-10.13,5.54-3,1.53-.79A2.32,2.32,0,0,1,311.28,417.05Z" style="fill:#263238"></path><path d="M279.56,424c.09.11-3.95,3.08-9,6.61s-9.23,6.31-9.32,6.19,4-3.08,9-6.62S279.48,423.91,279.56,424Z" style="fill:#263238"></path><path d="M305.77,445.75c-.12.06-2.58-4.28-5.48-9.7s-5.16-9.88-5-9.95,2.58,4.28,5.48,9.7S305.9,445.68,305.77,445.75Z" style="fill:#263238"></path><rect x="142.34" y="237.04" width="26.23" height="37.86" transform="translate(-119.05 375.69) rotate(-82.29)" style="fill:#e0e0e0"></rect><path d="M172.45,271.5s0-.17.05-.49.09-.81.16-1.39c.16-1.24.38-3,.66-5.26.59-4.54,1.43-11,2.44-18.88l.18.24-37.52-5,.29-.22h0v.08l0,.11,0,.22-.05.43-.12.87-.24,1.73c-.15,1.14-.31,2.28-.46,3.41q-.47,3.38-.9,6.65c-.6,4.35-1.17,8.52-1.71,12.47l-.2-.27,27,3.77,7.72,1.11,2.07.31.53.08.19,0s0,0-.16,0l-.52-.05-2-.25-7.69-1-27.15-3.56-.24,0,0-.24c.53-3.94,1.09-8.12,1.67-12.47.3-2.18.59-4.4.9-6.65.15-1.13.3-2.27.46-3.41.08-.58.15-1.15.23-1.73l.12-.86.06-.44,0-.22v-.19h0l.29-.22L176,245.3l.21,0,0,.21c-1.12,7.9-2,14.41-2.68,19-.32,2.23-.58,4-.76,5.2-.08.57-.15,1-.2,1.35A2.14,2.14,0,0,1,172.45,271.5Z" style="fill:#263238"></path><path d="M175.3,246.48a2,2,0,0,1-.38.31l-1.16.79-4.31,2.84c-3.65,2.38-8.71,5.63-14.32,9.2l-.34-.05h0v0l0,0-.06-.05-.1-.12-.21-.23-.41-.46-.82-.9-1.6-1.78-3-3.36-5.1-5.71C142,245.31,140.89,244,140,243l-.9-1.08a2.37,2.37,0,0,1-.29-.39s.14.1.37.32l1,1,3.53,3.77,5.17,5.64,3,3.34,1.61,1.77.82.9.42.46.21.23.1.12,0,.06,0,0v0h0l-.33,0c5.61-3.57,10.7-6.77,14.41-9.07l4.39-2.7,1.21-.71C175.14,246.54,175.29,246.46,175.3,246.48Z" style="fill:#263238"></path><path d="M149.74,253.59a78.51,78.51,0,0,1-7,5.84,81.25,81.25,0,0,1-7.35,5.43,78.51,78.51,0,0,1,7-5.84A81.25,81.25,0,0,1,149.74,253.59Z" style="fill:#263238"></path><path d="M172.09,270.14a81.6,81.6,0,0,1-5-7.64,82.91,82.91,0,0,1-4.51-7.91,77.35,77.35,0,0,1,5,7.64A76.43,76.43,0,0,1,172.09,270.14Z" style="fill:#263238"></path><rect x="86.46" y="273.58" width="26.23" height="37.86" transform="translate(-203.65 351.95) rotate(-82.29)" style="fill:#fff"></rect><path d="M116.57,308a4.26,4.26,0,0,1,0-.49c0-.34.1-.81.17-1.39.15-1.24.38-3,.66-5.26.58-4.54,1.42-11,2.44-18.88l.18.24-37.52-5,.29-.22h0v.19l0,.22-.06.44-.12.86c-.07.58-.15,1.15-.23,1.73-.15,1.14-.31,2.28-.46,3.41q-.47,3.38-.91,6.65c-.59,4.35-1.16,8.52-1.7,12.47l-.2-.27,27,3.77,7.72,1.11,2.06.31.54.08.19,0s0,0-.17,0l-.51,0-2-.25-7.69-1L79,303.2l-.23,0,0-.24c.53-3.94,1.09-8.12,1.67-12.47q.44-3.27.9-6.65c.15-1.13.3-2.27.46-3.41.07-.58.15-1.15.23-1.73l.12-.86,0-.44,0-.22,0-.11V277h0l.3-.22,37.51,5.12.21,0,0,.21c-1.12,7.9-2,14.41-2.68,19-.33,2.22-.58,4-.76,5.19l-.21,1.35A1.88,1.88,0,0,1,116.57,308Z" style="fill:#263238"></path><path d="M119.42,283s-.12.12-.38.31l-1.16.79L113.57,287c-3.65,2.38-8.71,5.63-14.32,9.2l-.34-.05h0v0l0,0,0-.05-.1-.12-.21-.23-.42-.46-.82-.9-1.6-1.78-3-3.36-5.09-5.71c-1.39-1.59-2.54-2.91-3.4-3.88-.36-.43-.66-.78-.9-1.08s-.31-.38-.29-.39.14.1.36.32l1,1,3.52,3.77L93,288.83l3,3.34,1.61,1.77.82.9.41.46.21.23.11.12,0,.06,0,0,0,0h0l-.32,0c5.61-3.57,10.7-6.77,14.4-9.07l4.4-2.7,1.21-.71C119.26,283.08,119.41,283,119.42,283Z" style="fill:#263238"></path><path d="M93.86,290.13a80.3,80.3,0,0,1-7,5.84,82.14,82.14,0,0,1-7.36,5.43,78.51,78.51,0,0,1,7-5.84A82.14,82.14,0,0,1,93.86,290.13Z" style="fill:#263238"></path><path d="M116.21,306.68a81.6,81.6,0,0,1-4.95-7.64,80.35,80.35,0,0,1-4.51-7.91,78.46,78.46,0,0,1,5,7.64A77.77,77.77,0,0,1,116.21,306.68Z" style="fill:#263238"></path><rect x="126.65" y="369.88" width="46.13" height="31.96" transform="translate(-65.94 32.6) rotate(-10.2)" style="fill:#ebebeb"></rect><path d="M175.24,397.5s-.05-.21-.12-.59l-.33-1.67c-.28-1.48-.68-3.62-1.19-6.34-1-5.48-2.46-13.3-4.22-22.82l.24.17-45.38,8.22c0,.06.39-.57.21-.3h0v.1l0,.14.05.26.09.52.19,1.05c.13.7.25,1.4.38,2.09.25,1.39.49,2.76.74,4.13q.74,4.09,1.44,8c.94,5.26,1.85,10.32,2.7,15.09l-.28-.19,32.7-5.76,9.36-1.62,2.5-.42.65-.1a1.31,1.31,0,0,1,.23,0l-.19.05-.63.12-2.44.47-9.29,1.74-32.8,6-.24,0,0-.23c-.86-4.78-1.78-9.83-2.73-15.09-.47-2.64-1-5.32-1.45-8.05-.25-1.37-.5-2.74-.75-4.13-.12-.69-.25-1.39-.37-2.09l-.19-1-.09-.53,0-.26,0-.13v-.12h0l.22-.31,45.4-8.11.21,0,0,.21c1.68,9.58,3.06,17.47,4,23,.46,2.7.82,4.83,1.08,6.31.11.7.2,1.24.27,1.64S175.24,397.5,175.24,397.5Z" style="fill:#263238"></path><path d="M169.18,367.42a3.49,3.49,0,0,1-.34.49l-1.06,1.35-3.94,4.89-13.18,16c-.66.12-.19,0-.34.05h0l0,0-.08,0L150,390l-.33-.19-.65-.37-1.29-.75-2.53-1.46-4.76-2.76-8-4.7L127,376.6l-1.46-.9a3,3,0,0,1-.49-.34,2.12,2.12,0,0,1,.54.25l1.51.81,5.49,3.07,8.1,4.6,4.78,2.74,2.52,1.45,1.3.75.65.37.33.19.16.09.08.05,0,0h0c-.14,0,.34,0-.32.07l13.29-15.92,4.08-4.79,1.13-1.28A2.46,2.46,0,0,1,169.18,367.42Z" style="fill:#263238"></path><path d="M142.2,385.24c.12.08-2.57,4.28-6,9.37s-6.33,9.16-6.45,9.08,2.58-4.28,6-9.37S142.08,385.16,142.2,385.24Z" style="fill:#263238"></path><path d="M174.32,396.05c-.1.11-3.93-3.05-8.57-7.05s-8.32-7.33-8.23-7.44,3.93,3.05,8.57,7.05S174.41,395.94,174.32,396.05Z" style="fill:#263238"></path><rect x="122.76" y="394.55" width="42.57" height="29.49" transform="translate(-7.6 2.76) rotate(-1.07)" style="fill:#fff"></rect><path d="M165.6,423.64l0-.55c0-.39,0-.91,0-1.57,0-1.4-.1-3.41-.17-6-.12-5.14-.29-12.48-.51-21.4l.22.2-42.56.85c-.06.05.48-.5.25-.26h0v1l0,1c0,.65,0,1.3,0,1.95,0,1.3,0,2.59.07,3.87,0,2.56.09,5.08.13,7.55.09,4.94.17,9.67.25,14.15l-.24-.23,30.62-.46,8.77-.1h3.17s0,0-.18,0l-.59,0-2.29.07-8.72.23-30.77.69h-.24v-.24c-.08-4.48-.18-9.21-.28-14.15q-.06-3.71-.14-7.55c0-1.28,0-2.57-.07-3.87,0-.65,0-1.3,0-1.95l0-1v-1h0l.26-.27,42.56-.75h.21v.21c.13,9,.23,16.36.3,21.54,0,2.53,0,4.52.05,5.91,0,.65,0,1.16,0,1.53A2.61,2.61,0,0,1,165.6,423.64Z" style="fill:#263238"></path><path d="M164.48,395.35a2.54,2.54,0,0,1-.38.4L163,396.82l-4.31,3.89-14.35,12.67h-.37l0,0-.07-.05-.13-.11-.28-.22-.53-.44-1.07-.87c-.71-.57-1.4-1.14-2.08-1.7l-3.94-3.21-6.64-5.47-4.45-3.72-1.19-1a3,3,0,0,1-.4-.38,1.93,1.93,0,0,1,.46.3l1.26,1,4.55,3.59,6.71,5.38,4,3.2,2.09,1.69,1.06.86.54.44.27.22.14.11.07.06,0,0,0,0h0c-.15,0,.34,0-.33,0l14.44-12.56,4.42-3.76,1.22-1C164.31,395.44,164.47,395.33,164.48,395.35Z" style="fill:#263238"></path><path d="M137.29,407.63a101.43,101.43,0,0,1-6.84,7.67c-3.88,4.14-7.11,7.42-7.21,7.32a99.47,99.47,0,0,1,6.83-7.67A102.16,102.16,0,0,1,137.29,407.63Z" style="fill:#263238"></path><path d="M165,422.19a101.21,101.21,0,0,1-6.79-7.67,100.94,100.94,0,0,1-6.39-8,97.48,97.48,0,0,1,6.79,7.66A97.89,97.89,0,0,1,165,422.19Z" style="fill:#263238"></path><rect x="174.34" y="407.43" width="27.7" height="39.98" transform="translate(-260.62 556.6) rotate(-82.29)" style="fill:#fff"></rect><path d="M206.14,443.83a3.86,3.86,0,0,1,.05-.52c0-.36.1-.84.17-1.47.17-1.3.4-3.17.7-5.55.62-4.79,1.51-11.63,2.59-19.94l.18.24-39.63-5.31.29-.22h0v.09l0,.11,0,.23-.06.46-.13.92-.24,1.82c-.17,1.21-.33,2.41-.49,3.6-.33,2.38-.64,4.72-1,7-.62,4.6-1.23,9-1.8,13.17l-.2-.26,28.49,4,8.16,1.17,2.17.32.57.09.2,0H206l-.54-.06-2.14-.26-8.12-1-28.67-3.76-.24,0,0-.24c.56-4.17,1.15-8.58,1.77-13.18.31-2.29.62-4.64.94-7,.17-1.19.33-2.39.49-3.6.08-.61.16-1.22.25-1.82l.12-.92.06-.46,0-.23,0-.11V411h0l.3-.23,39.61,5.41.21,0,0,.21c-1.17,8.35-2.14,15.22-2.82,20-.34,2.35-.61,4.2-.8,5.49-.09.6-.16,1.07-.21,1.42A2.45,2.45,0,0,1,206.14,443.83Z" style="fill:#263238"></path><path d="M209.15,417.41a2.37,2.37,0,0,1-.41.32l-1.22.83-4.55,3c-3.86,2.51-9.21,5.94-15.13,9.71l-.34,0h0v0l0,0-.06-.06-.11-.12-.22-.24-.43-.49-.87-1-1.69-1.87-3.19-3.55-5.38-6-3.59-4.1-1-1.13a1.67,1.67,0,0,1-.31-.42,2.17,2.17,0,0,1,.39.35l1,1.07,3.71,4,5.47,6,3.21,3.53,1.7,1.87.86.95.44.49.22.24.11.12.06.06,0,0,0,0h0l-.32,0c5.92-3.77,11.3-7.15,15.21-9.58l4.64-2.86,1.28-.75C209,417.47,209.14,417.39,209.15,417.41Z" style="fill:#263238"></path><path d="M182.15,424.92a89.62,89.62,0,0,1-7.43,6.15,86.59,86.59,0,0,1-7.76,5.74,91.23,91.23,0,0,1,7.44-6.15A88.09,88.09,0,0,1,182.15,424.92Z" style="fill:#263238"></path><path d="M205.76,442.39a88.33,88.33,0,0,1-5.22-8.08,89.33,89.33,0,0,1-4.77-8.34A89,89,0,0,1,201,434,90.16,90.16,0,0,1,205.76,442.39Z" style="fill:#263238"></path><rect x="139.61" y="416.24" width="29.49" height="42.57" transform="translate(-299.92 531.81) rotate(-82.29)" style="fill:#fff"></rect><path d="M173.47,455s0-.2.05-.55.11-.9.19-1.56c.17-1.39.42-3.38.74-5.91.67-5.1,1.61-12.39,2.76-21.23l.18.23-42.19-5.66c-.06.05.56-.42.29-.21h0v.11l0,.12,0,.25-.07.48-.13,1c-.09.65-.17,1.29-.26,1.94-.18,1.29-.35,2.56-.52,3.83-.35,2.54-.69,5-1,7.48-.67,4.89-1.31,9.59-1.91,14l-.21-.26,30.34,4.22,8.68,1.24,2.32.34.6.1.22,0h-.19l-.58-.07-2.28-.27-8.65-1.11-30.52-4-.24,0,0-.24c.59-4.44,1.22-9.13,1.88-14,.33-2.44.66-4.94,1-7.48.18-1.27.35-2.54.52-3.83.09-.65.18-1.29.26-1.94l.14-1,.06-.49,0-.25V420h0c-.26.19.36-.28.29-.23l42.18,5.76.21,0,0,.2-3,21.33c-.36,2.51-.64,4.48-.84,5.85-.1.65-.18,1.15-.23,1.52Z" style="fill:#263238"></path><path d="M176.67,426.85s-.14.14-.44.34l-1.3.89-4.85,3.18L154,441.6l-.34-.05h0v0l0,0-.06-.07-.12-.13-.23-.25-.47-.52-.92-1-1.8-2-3.4-3.77c-2.14-2.41-4.08-4.58-5.73-6.42L137,423l-1-1.2a2.56,2.56,0,0,1-.33-.44s.15.11.41.37l1.09,1.14,4,4.24,5.81,6.34,3.42,3.76c.59.66,1.19,1.32,1.81,2l.92,1,.46.52.24.26.12.13.05.06,0,0,0,0h0c-.15,0,.33.05-.33,0L169.88,431l4.94-3,1.36-.8A2.91,2.91,0,0,1,176.67,426.85Z" style="fill:#263238"></path><path d="M147.92,434.85c.09.11-3.46,3-7.92,6.54a102.35,102.35,0,0,1-8.25,6.13,102.11,102.11,0,0,1,7.93-6.54C144.14,437.48,147.84,434.74,147.92,434.85Z" style="fill:#263238"></path><path d="M173.06,453.46c-.12.07-2.6-3.78-5.54-8.61s-5.22-8.81-5.1-8.88a97.25,97.25,0,0,1,5.55,8.61A102.06,102.06,0,0,1,173.06,453.46Z" style="fill:#263238"></path><rect x="184.94" y="422.94" width="39.98" height="27.7" transform="translate(-74.09 43.18) rotate(-10.2)" style="fill:#ebebeb"></rect><path d="M227.06,446.88a4.11,4.11,0,0,1-.12-.51c-.07-.35-.16-.84-.28-1.45-.25-1.29-.6-3.14-1-5.5-.88-4.75-2.14-11.53-3.66-19.76l.24.16L182.85,427c0,.07.39-.57.21-.3h0v.1l0,.12,0,.22.08.46.16.91.33,1.81c.21,1.2.43,2.39.64,3.57q.63,3.56,1.25,7c.82,4.57,1.6,8.95,2.34,13.09l-.28-.19,28.33-5,8.12-1.4,2.18-.36.56-.09.21,0-.17.05-.54.11-2.12.41-8,1.51-28.44,5.23-.24.05,0-.24c-.75-4.13-1.54-8.51-2.37-13.08-.41-2.28-.83-4.61-1.26-7-.21-1.19-.43-2.38-.64-3.58l-.33-1.81-.16-.91-.09-.45,0-.23,0-.12v-.1h0c-.18.26.26-.38.22-.31l39.35-7,.21,0,0,.21c1.45,8.31,2.64,15.14,3.47,19.94.4,2.34.71,4.18.93,5.47.1.6.18,1.07.23,1.42S227.06,446.89,227.06,446.88Z" style="fill:#263238"></path><path d="M221.8,420.81a2.41,2.41,0,0,1-.29.43l-.91,1.17-3.41,4.25c-2.9,3.57-6.94,8.49-11.41,13.89l-.34.06h0l0,0-.07,0-.14-.08-.28-.17-.57-.32-1.12-.65L201,438.05l-4.13-2.4-7-4.08-4.68-2.8L184,428a2.25,2.25,0,0,1-.42-.3,1.84,1.84,0,0,1,.47.21l1.31.7,4.76,2.65,7,4c1.32.75,2.71,1.54,4.14,2.37l2.19,1.25,1.12.65.57.32.28.17.14.08.07,0,0,0h0l-.33.06c4.48-5.41,8.56-10.28,11.53-13.79l3.54-4.15,1-1.11C221.65,420.92,221.78,420.8,221.8,420.81Z" style="fill:#263238"></path><path d="M198.41,436.26a90.2,90.2,0,0,1-5.18,8.14,90.76,90.76,0,0,1-5.61,7.85,88.59,88.59,0,0,1,5.18-8.14A88.88,88.88,0,0,1,198.41,436.26Z" style="fill:#263238"></path><path d="M226.25,445.63a90,90,0,0,1-7.45-6.09,88.64,88.64,0,0,1-7.11-6.47,86.69,86.69,0,0,1,7.45,6.08A89.78,89.78,0,0,1,226.25,445.63Z" style="fill:#263238"></path><rect x="94.93" y="398.57" width="24.87" height="35.9" transform="translate(-319.79 467.07) rotate(-82.29)" style="fill:#fff"></rect><path d="M123.49,431.26a3.81,3.81,0,0,1,0-.47c0-.33.09-.77.16-1.32.14-1.19.35-2.86.62-5,.55-4.31,1.35-10.45,2.31-17.9l.18.24-35.58-4.77.29-.22h0V402l0,.21,0,.41-.12.82c-.07.55-.14,1.09-.22,1.64-.14,1.08-.29,2.16-.44,3.23q-.44,3.21-.85,6.31c-.57,4.12-1.11,8.08-1.62,11.82l-.2-.26,25.57,3.58,7.32,1,2,.29.51.09.18,0-.64-.06-1.92-.23-7.29-.93-25.76-3.36-.23,0,0-.24c.5-3.74,1-7.7,1.58-11.83.28-2.06.56-4.17.85-6.31.15-1.07.29-2.15.44-3.23.07-.55.14-1.09.22-1.64l.11-.82.06-.41,0-.21,0-.1v-.08h0l.3-.22,35.56,4.86.21,0,0,.21c-1.06,7.49-1.93,13.66-2.54,18-.31,2.11-.55,3.76-.72,4.93-.09.54-.15,1-.2,1.28A3.51,3.51,0,0,1,123.49,431.26Z" style="fill:#263238"></path><path d="M126.19,407.53a12,12,0,0,1-1.46,1.05l-4.08,2.69c-3.46,2.26-8.26,5.34-13.58,8.73-.67-.09-.19,0-.34-.06h0l0,0,0,0,0-.06-.1-.11-.2-.22-.39-.43-.78-.86-1.52-1.68-2.86-3.19c-1.8-2-3.43-3.86-4.83-5.42s-2.4-2.75-3.22-3.68a11.43,11.43,0,0,1-1.12-1.4,10.84,10.84,0,0,1,1.27,1.26l3.35,3.57,4.91,5.35,2.88,3.16,1.53,1.68c.25.29.51.57.78.86l.39.44.2.21.09.11,0,.06,0,0h0l-.33,0c5.32-3.39,10.15-6.42,13.66-8.6l4.17-2.56A12.24,12.24,0,0,1,126.19,407.53Z" style="fill:#263238"></path><path d="M102,414.27a71.83,71.83,0,0,1-6.66,5.55,70.47,70.47,0,0,1-7,5.13A72.76,72.76,0,0,1,95,419.41,73.74,73.74,0,0,1,102,414.27Z" style="fill:#263238"></path><path d="M123.15,430a71,71,0,0,1-4.71-7.24,68.4,68.4,0,0,1-4.26-7.51,73.9,73.9,0,0,1,4.71,7.24A73.87,73.87,0,0,1,123.15,430Z" style="fill:#263238"></path><rect x="375.36" y="255.27" width="18.62" height="18.1" transform="translate(26.24 563.25) rotate(-74.32)" style="fill:#fff"></rect><path d="M390.87,275.73a2.08,2.08,0,0,1,.07-.36c.07-.26.15-.59.25-1l1-3.68c.86-3.19,2.07-7.64,3.51-13l.16.28-17.44-4.86.32-.18h0v.06l0,.07-.05.16-.08.3-.17.62c-.12.41-.23.81-.35,1.21-.22.81-.45,1.61-.67,2.4-.45,1.59-.88,3.13-1.31,4.64-.85,3-1.66,5.84-2.4,8.44l-.15-.28L386,274.26l3.55,1.06.94.29.34.12-.31-.06-.91-.23-3.53-.93-12.74-3.46-.22-.05.06-.22c.73-2.61,1.51-5.45,2.35-8.46.42-1.5.85-3.05,1.29-4.64.22-.79.45-1.59.67-2.4.12-.4.23-.81.35-1.21l.17-.62.08-.3.05-.16,0-.07v-.06h0l.32-.18L396,257.58l.22.07-.06.21-3.78,13c-.45,1.51-.81,2.71-1.07,3.6l-.29.93A2.41,2.41,0,0,1,390.87,275.73Z" style="fill:#263238"></path><path d="M394.08,265.24a8,8,0,0,1-1.57.85c-1,.5-2.45,1.19-4.19,2l-.17.08L388,268l-3-4.4c-1.83-2.69-3.45-5.13-4.61-6.92a22.79,22.79,0,0,1-1.78-3,22.76,22.76,0,0,1,2.09,2.75c1.23,1.73,2.9,4.14,4.73,6.83l3,4.43-.29-.08c1.75-.76,3.23-1.39,4.27-1.82A8.33,8.33,0,0,1,394.08,265.24Z" style="fill:#263238"></path><path d="M385.11,263.27a40.32,40.32,0,0,1-5.48,3.48,41.16,41.16,0,0,1-5.74,3,40.32,40.32,0,0,1,5.48-3.48A41.16,41.16,0,0,1,385.11,263.27Z" style="fill:#263238"></path><polygon points="374.01 260.83 342.68 254.21 338.05 234.27 369.39 240.89 374.01 260.83" style="fill:#fff"></polygon><path d="M374,260.83s0-.13-.1-.38l-.27-1.06c-.23-1-.56-2.31-1-4-.84-3.47-2-8.41-3.47-14.43l.16.15L338,234.53c-.07.06.58-.6.31-.32h0v.06l0,.08,0,.17.08.33.15.66.31,1.32.6,2.6q.6,2.58,1.18,5.09c.76,3.34,1.51,6.55,2.21,9.62l-.18-.18,22.45,4.88,6.47,1.43,1.74.39.62.15-.56-.09-1.69-.34-6.43-1.29-22.7-4.66-.15,0,0-.15q-1.06-4.61-2.24-9.62c-.39-1.66-.78-3.36-1.18-5.08-.2-.86-.41-1.73-.61-2.61l-.3-1.31L338,235l-.07-.33,0-.17,0-.08v-.06h0c-.27.28.37-.38.31-.31l31.32,6.67.13,0,0,.12c1.36,6.11,2.48,11.12,3.27,14.65.37,1.69.66,3,.87,4,.09.43.17.76.22,1A1.63,1.63,0,0,1,374,260.83Z" style="fill:#263238"></path><path d="M369.39,240.89a6,6,0,0,1-.87.71L366,243.42c-2.13,1.53-5.15,3.67-8.64,6.11l-.15.1-.14-.11-3.79-3c-4.26-3.34-8.1-6.38-10.86-8.61l-3.25-2.65a9.28,9.28,0,0,1-1.15-1,7.74,7.74,0,0,1,1.28.87l3.35,2.52c2.82,2.15,6.69,5.15,10.95,8.49l3.78,3h-.3c3.5-2.41,6.55-4.49,8.74-6l2.58-1.7A4.51,4.51,0,0,1,369.39,240.89Z" style="fill:#263238"></path><path d="M352,245.89a38.27,38.27,0,0,1-4.47,4.36,37.41,37.41,0,0,1-4.82,4,75.4,75.4,0,0,1,9.29-8.32Z" style="fill:#263238"></path><path d="M374,260.83A91.65,91.65,0,0,1,367.2,254a90.37,90.37,0,0,1-6.44-7.21,90.56,90.56,0,0,1,6.82,6.85A88.6,88.6,0,0,1,374,260.83Z" style="fill:#263238"></path><polygon points="364.46 287.83 339.15 282.48 335.42 266.37 360.73 271.72 364.46 287.83" style="fill:#f5f5f5"></polygon><path d="M360.73,271.72a3.71,3.71,0,0,1-.69.58l-2,1.49c-1.72,1.25-4.16,3-7,4.95l-.15.1-.15-.11-3.06-2.39c-3.44-2.7-6.53-5.16-8.76-7l-2.61-2.16a5.43,5.43,0,0,1-.92-.85,5.86,5.86,0,0,1,1,.69l2.72,2c2.28,1.73,5.41,4.14,8.85,6.84l3.05,2.4h-.3c2.83-1.95,5.3-3.62,7.07-4.8.83-.53,1.52-1,2.09-1.36A3.3,3.3,0,0,1,360.73,271.72Z" style="fill:#e0e0e0"></path><path d="M346.66,275.76a25.1,25.1,0,0,1-3.58,3.56,24.12,24.12,0,0,1-3.93,3.16,25.37,25.37,0,0,1,3.58-3.55A24.55,24.55,0,0,1,346.66,275.76Z" style="fill:#e0e0e0"></path><path d="M364.47,287.83a57.24,57.24,0,0,1-5.55-5.5,60.28,60.28,0,0,1-5.16-5.86,58,58,0,0,1,5.54,5.5A59.64,59.64,0,0,1,364.47,287.83Z" style="fill:#e0e0e0"></path><polygon points="332.45 283.82 301.12 277.2 296.5 257.25 327.83 263.87 332.45 283.82" style="fill:#fff"></polygon><path d="M332.45,283.82s0-.14-.1-.38l-.27-1.07c-.23-1-.56-2.31-1-4-.83-3.48-2-8.42-3.47-14.44l.16.15-31.35-6.56c-.06.06.58-.6.31-.31h0v.06l0,.09,0,.16.07.33.16.66.3,1.32.6,2.6c.4,1.73.79,3.42,1.18,5.09.77,3.34,1.51,6.56,2.21,9.62l-.18-.18,22.45,4.88,6.48,1.43,1.74.39a5.49,5.49,0,0,1,.61.16l-.56-.1-1.69-.33-6.43-1.3-22.7-4.66-.15,0,0-.15c-.72-3.06-1.47-6.28-2.25-9.61q-.58-2.5-1.18-5.09c-.2-.86-.4-1.73-.61-2.6l-.3-1.32-.15-.66-.08-.33,0-.17,0-.08v-.06h0l.31-.31,31.32,6.67.13,0,0,.13c1.37,6.1,2.49,11.11,3.27,14.64.37,1.7.67,3,.88,4,.09.43.16.77.21,1A1.53,1.53,0,0,1,332.45,283.82Z" style="fill:#263238"></path><path d="M327.83,263.87a5.37,5.37,0,0,1-.86.71l-2.5,1.82c-2.13,1.54-5.15,3.67-8.63,6.11l-.16.11-.14-.12-3.79-3c-4.26-3.34-8.09-6.38-10.85-8.6l-3.26-2.66a7.18,7.18,0,0,1-1.14-1,8.58,8.58,0,0,1,1.27.87c.87.65,2,1.5,3.35,2.53,2.82,2.15,6.69,5.14,10.95,8.48l3.78,3h-.3c3.5-2.41,6.55-4.49,8.74-5.95l2.58-1.7A6.24,6.24,0,0,1,327.83,263.87Z" style="fill:#263238"></path><path d="M310.41,268.88a39.69,39.69,0,0,1-4.47,4.35,38.31,38.31,0,0,1-4.82,4,36.42,36.42,0,0,1,4.47-4.36A36.87,36.87,0,0,1,310.41,268.88Z" style="fill:#263238"></path><path d="M332.45,283.82a93.1,93.1,0,0,1-6.81-6.86,93.52,93.52,0,0,1-6.44-7.2,86.29,86.29,0,0,1,6.82,6.85A86.67,86.67,0,0,1,332.45,283.82Z" style="fill:#263238"></path><polygon points="361.03 276.99 320.92 268.51 315.01 242.99 355.11 251.46 361.03 276.99" style="fill:#e0e0e0"></polygon><path d="M361,277s0-.17-.13-.48l-.33-1.36c-.3-1.21-.71-2.94-1.24-5.14-1.06-4.43-2.57-10.77-4.42-18.5l.16.15L315,243.24l.3-.31h0V243l0,.11.05.21.1.42.19.85.39,1.68c.26,1.12.52,2.23.77,3.33.51,2.21,1,4.38,1.51,6.52,1,4.27,1.93,8.39,2.84,12.31l-.19-.18,28.77,6.21L358,276.3l2.22.5.57.13a.78.78,0,0,1,.21.06l-.18,0-.55-.11-2.17-.43-8.24-1.68-29-6-.14,0,0-.15c-.91-3.92-1.87-8-2.87-12.31-.49-2.13-1-4.3-1.51-6.51-.26-1.1-.51-2.21-.77-3.33l-.39-1.68-.2-.85-.1-.42-.05-.21,0-.11,0-.05v0h0l.31-.32,40.09,8.53.13,0,0,.12c1.76,7.82,3.21,14.23,4.22,18.72.48,2.18.86,3.9,1.13,5.1.12.56.22,1,.29,1.32A3,3,0,0,1,361,277Z" style="fill:#263238"></path><path d="M355.11,251.46a9.79,9.79,0,0,1-1.12.88l-3.2,2.32-11.07,7.8-.15.1-.15-.11c-1.53-1.2-3.16-2.48-4.85-3.79-5.44-4.27-10.36-8.16-13.9-11l-4.18-3.38-1.11-.94A2,2,0,0,1,315,243s.16.08.43.27l1.18.86,4.28,3.25c3.6,2.76,8.55,6.61,14,10.88l4.83,3.8h-.3l11.18-7.65,3.28-2.19A8.8,8.8,0,0,1,355.11,251.46Z" style="fill:#263238"></path><path d="M332.81,257.87a62.77,62.77,0,0,1-5.77,5.51,59.93,59.93,0,0,1-6.12,5.13,65.26,65.26,0,0,1,5.77-5.52A63.25,63.25,0,0,1,332.81,257.87Z" style="fill:#263238"></path><path d="M361,277c-.11.09-4-3.85-8.67-8.82s-8.4-9.08-8.29-9.18,4,3.85,8.67,8.82S361.13,276.89,361,277Z" style="fill:#263238"></path><polygon points="286.99 261.03 251.27 253.49 246 230.75 281.72 238.3 286.99 261.03" style="fill:#e0e0e0"></polygon><path d="M287,261a3,3,0,0,1-.12-.42c-.07-.31-.17-.71-.3-1.21-.26-1.09-.64-2.63-1.11-4.58-.95-4-2.3-9.6-3.94-16.47l.15.15L246,231l.3-.31h0v.09l0,.09.05.19.09.38.17.75.35,1.5c.23,1,.46,2,.68,3,.46,2,.91,3.9,1.35,5.8.87,3.8,1.72,7.47,2.52,11l-.18-.18,25.61,5.55,7.38,1.62,2,.44.51.12.19,0-.65-.11-1.93-.38-7.34-1.49-25.85-5.33-.15,0,0-.15c-.81-3.49-1.67-7.16-2.55-11l-1.35-5.8-.69-3-.35-1.5-.17-.75-.09-.38,0-.19,0-.1,0,0v0h0l.31-.32,35.71,7.6.13,0,0,.12c1.56,7,2.84,12.68,3.74,16.68.43,1.94.76,3.47,1,4.55l.26,1.17C287,260.91,287,261,287,261Z" style="fill:#263238"></path><path d="M281.72,238.3a8.2,8.2,0,0,1-1,.8l-2.84,2.06-9.86,7-.15.1-.15-.11-4.31-3.38c-4.85-3.8-9.23-7.27-12.38-9.8l-3.71-3a10.84,10.84,0,0,1-1.32-1.17,12.78,12.78,0,0,1,1.44,1l3.82,2.88c3.21,2.46,7.62,5.88,12.47,9.68l4.31,3.39h-.3l9.95-6.8,2.94-2A8,8,0,0,1,281.72,238.3Z" style="fill:#263238"></path><path d="M261.86,244a51.32,51.32,0,0,1-5.12,4.93,49.53,49.53,0,0,1-5.47,4.55A95.16,95.16,0,0,1,261.86,244Z" style="fill:#263238"></path><path d="M287,261c-.11.1-3.57-3.41-7.75-7.83s-7.46-8.09-7.36-8.19,3.57,3.41,7.74,7.83S287.09,260.94,287,261Z" style="fill:#263238"></path><polygon points="237.5 290.45 211.33 315.91 189.51 307.62 215.68 282.16 237.5 290.45" style="fill:#e0e0e0"></polygon><path d="M237.5,290.45l-.42-.14-1.18-.43-4.42-1.62-15.87-5.91.22,0L189.7,307.8c0,.1-.17-.81-.09-.42h0l0,0,.09,0,.18.07.36.14.72.27,1.44.55,2.85,1.08,5.56,2.12,10.52,4-.26.05c7.69-7.39,14.23-13.69,18.88-18.17l5.45-5.23,1.47-1.39.39-.37.15-.12s-.15.16-.46.47l-1.39,1.39-5.32,5.27-18.83,18.5-.11.11-.14-.06-10.53-4L195.15,310,192.31,309l-1.44-.55-.72-.27-.37-.14-.18-.07-.09,0h-.08c.07.39-.12-.52-.09-.43L215.54,282l.09-.09.13.05,15.93,6.18,4.33,1.7,1.12.44Z" style="fill:#263238"></path><path d="M215.68,282.16a6.87,6.87,0,0,1,.11,1.27c0,.9.08,2.08.13,3.51.07,3.09.17,7.27.29,12.06v.19l-.18.05L210.82,301c-5.86,1.91-11.17,3.61-15,4.82l-4.58,1.4a12.46,12.46,0,0,1-1.69.45,10,10,0,0,1,1.63-.64l4.53-1.56c3.82-1.3,9.12-3.06,15-5l5.22-1.69-.18.25c0-4.79-.08-9-.1-12.06,0-1.44,0-2.62,0-3.52A7.06,7.06,0,0,1,215.68,282.16Z" style="fill:#263238"></path><path d="M209.35,301.83a48,48,0,0,1,1.25,7,48.46,48.46,0,0,1,.73,7.08,49.67,49.67,0,0,1-1.25-7A50.19,50.19,0,0,1,209.35,301.83Z" style="fill:#263238"></path><path d="M237.5,290.45c0,.14-4.82,1.07-10.82,2.06s-10.88,1.7-10.91,1.55,4.82-1.06,10.82-2.06S237.47,290.31,237.5,290.45Z" style="fill:#263238"></path><polygon points="181.08 321.68 154.91 347.14 133.1 338.85 159.26 313.39 181.08 321.68" style="fill:#e0e0e0"></polygon><path d="M181.08,321.68l-.42-.14-1.17-.43-4.42-1.62-15.88-5.91.22,0L133.28,339c0,.1-.17-.81-.09-.42h0l.05,0,.09,0,.18.07.36.14.72.27,1.44.55,2.85,1.08,5.56,2.12,10.52,4-.25.06,18.87-18.18,5.46-5.23,1.47-1.39.38-.36a.67.67,0,0,1,.15-.13,5.57,5.57,0,0,1-.46.47l-1.39,1.39-5.32,5.27-18.83,18.5-.11.11-.14-.06-10.53-4-5.56-2.11-2.85-1.08-1.44-.55-.72-.27-.37-.14-.18-.07-.09,0H133c.07.39-.11-.52-.09-.43l26.2-25.42.1-.09.12.05,15.94,6.18,4.32,1.7,1.12.44A2.62,2.62,0,0,1,181.08,321.68Z" style="fill:#263238"></path><path d="M159.26,313.39a6.87,6.87,0,0,1,.11,1.27c0,.9.08,2.08.13,3.51.08,3.09.17,7.27.29,12.06v.19l-.18.05-5.2,1.71c-5.87,1.91-11.18,3.61-15,4.82l-4.57,1.4a12.76,12.76,0,0,1-1.7.45,10.57,10.57,0,0,1,1.63-.64l4.53-1.56c3.82-1.3,9.12-3.06,15-5l5.21-1.69-.18.25c0-4.79-.07-9-.1-12.06,0-1.44,0-2.62,0-3.52A7.06,7.06,0,0,1,159.26,313.39Z" style="fill:#263238"></path><path d="M152.94,333.06a48.89,48.89,0,0,1,1.24,7,48.46,48.46,0,0,1,.73,7.08,48.89,48.89,0,0,1-1.24-7A46.85,46.85,0,0,1,152.94,333.06Z" style="fill:#263238"></path><path d="M181.08,321.68c0,.14-4.82,1.07-10.82,2.06s-10.88,1.7-10.91,1.55,4.82-1.06,10.82-2.06S181.06,321.54,181.08,321.68Z" style="fill:#263238"></path><polygon points="305.05 246.84 269.13 239.25 263.84 216.39 299.75 223.98 305.05 246.84" style="fill:#fff"></polygon><path d="M305.05,246.84a4.39,4.39,0,0,1-.12-.43c-.07-.31-.17-.71-.3-1.22-.27-1.09-.64-2.64-1.12-4.6-.95-4-2.31-9.65-4-16.56l.16.15-35.93-7.53c-.07.06.58-.6.31-.31h0v.08l0,.09.05.19.08.38.18.76.35,1.5c.23,1,.46,2,.69,3,.46,2,.91,3.92,1.35,5.83l2.54,11-.19-.18,25.75,5.57,7.42,1.63,2,.45.52.12.19.05-.65-.12-1.94-.38-7.38-1.5-26-5.36-.15,0,0-.15-2.57-11c-.44-1.92-.9-3.86-1.35-5.84-.23-1-.47-2-.7-3l-.35-1.51-.17-.75-.09-.38,0-.19,0-.1v-.07h0c-.27.28.38-.38.31-.31l35.9,7.64.13,0,0,.12,3.76,16.77,1,4.57c.11.49.19.88.26,1.18A3,3,0,0,1,305.05,246.84Z" style="fill:#263238"></path><path d="M299.75,224a8.36,8.36,0,0,1-1,.8l-2.86,2.08-9.91,7-.15.11-.15-.12-4.34-3.39c-4.88-3.83-9.28-7.31-12.44-9.86l-3.74-3a9.91,9.91,0,0,1-1.32-1.17,11.68,11.68,0,0,1,1.45,1l3.83,2.9c3.23,2.47,7.66,5.91,12.54,9.74l4.33,3.4h-.3l10-6.84,2.95-2A6.81,6.81,0,0,1,299.75,224Z" style="fill:#263238"></path><path d="M279.78,229.72a50.6,50.6,0,0,1-5.15,5,48.43,48.43,0,0,1-5.5,4.57,49.39,49.39,0,0,1,5.15-5A48.43,48.43,0,0,1,279.78,229.72Z" style="fill:#263238"></path><path d="M305.05,246.84c-.11.1-3.59-3.43-7.79-7.88s-7.51-8.14-7.4-8.24,3.59,3.43,7.78,7.88S305.15,246.74,305.05,246.84Z" style="fill:#263238"></path><polygon points="385.91 287.49 355.51 286.49 347.89 268.61 378.28 269.61 385.91 287.49" style="fill:#fff"></polygon><path d="M385.91,287.49a2.24,2.24,0,0,1-.17-.33l-.42-1c-.38-.87-.92-2.07-1.59-3.6l-5.64-12.92.18.13-30.39-.95.25-.36h0v0l0,0,0,.08.07.15.12.29.25.6.51,1.17,1,2.34c.66,1.54,1.31,3.07,1.94,4.56l3.67,8.63-.22-.15,21.79.85,6.3.27,1.69.08.61,0a4.25,4.25,0,0,1-.54,0l-1.64,0-6.23-.15-22-.59h-.16l-.06-.14c-1.17-2.75-2.41-5.63-3.69-8.62l-2-4.56-1-2.33-.5-1.18-.26-.59-.12-.3-.07-.15,0-.07v-.06h0l.25-.37,30.39,1.06h.13l.05.12c2.28,5.49,4.16,10,5.48,13.16.63,1.52,1.12,2.72,1.47,3.58l.38.92Z" style="fill:#263238"></path><path d="M378.28,269.61a4.3,4.3,0,0,1-.69.81l-2,2.12c-1.74,1.79-4.21,4.29-7.06,7.14l-.13.14-.17-.09-4-2.14c-4.53-2.42-8.62-4.63-11.57-6.25l-3.48-1.95a7.11,7.11,0,0,1-1.24-.78,8.9,8.9,0,0,1,1.34.6l3.55,1.8c3,1.54,7.11,3.7,11.64,6.12l4,2.15-.3.05c2.88-2.84,5.39-5.29,7.19-7l2.13-2A5.23,5.23,0,0,1,378.28,269.61Z" style="fill:#263238"></path><path d="M362.82,277.18a34.43,34.43,0,0,1-3.45,4.82,33.15,33.15,0,0,1-3.86,4.49,35.11,35.11,0,0,1,3.45-4.82A34,34,0,0,1,362.82,277.18Z" style="fill:#263238"></path><path d="M385.91,287.49a79.82,79.82,0,0,1-7.52-5.26,80.32,80.32,0,0,1-7.2-5.69,84.38,84.38,0,0,1,7.51,5.27A82.55,82.55,0,0,1,385.91,287.49Z" style="fill:#263238"></path><polygon points="287.74 289 257.35 288 249.72 270.12 280.11 271.12 287.74 289" style="fill:#fff"></polygon><path d="M287.74,289a3.3,3.3,0,0,1-.16-.33l-.43-.95-1.59-3.6c-1.36-3.11-3.28-7.53-5.64-12.92l.19.13-30.39-.95c-.06.08.46-.68.24-.36h0v0l0,.08.07.15.12.29.26.6.5,1.17,1,2.34,1.95,4.56,3.66,8.63-.21-.15,21.79.85,6.29.27,1.69.08.61,0a4.13,4.13,0,0,1-.54,0l-1.64,0-6.22-.14-22-.6h-.15l-.06-.14-3.69-8.62-1.95-4.56c-.33-.77-.66-1.55-1-2.33l-.5-1.18-.25-.59-.13-.3-.06-.15,0-.07v-.06h0l.25-.37,30.39,1.06h.13l.05.12,5.48,13.16c.63,1.52,1.12,2.72,1.48,3.58l.37.92A2.68,2.68,0,0,1,287.74,289Z" style="fill:#263238"></path><path d="M280.11,271.12s-.22.31-.68.81l-2,2.12c-1.74,1.79-4.21,4.29-7.06,7.14l-.13.14-.17-.09-4-2.14c-4.53-2.42-8.62-4.63-11.57-6.25l-3.48-2a7.67,7.67,0,0,1-1.24-.78,8.9,8.9,0,0,1,1.34.6l3.56,1.8c3,1.54,7.1,3.7,11.64,6.12l4,2.15-.3,0c2.88-2.84,5.39-5.29,7.19-7l2.13-2A5.23,5.23,0,0,1,280.11,271.12Z" style="fill:#263238"></path><path d="M264.65,278.69a65.64,65.64,0,0,1-7.3,9.31,33.7,33.7,0,0,1,3.45-4.81A33.27,33.27,0,0,1,264.65,278.69Z" style="fill:#263238"></path><path d="M287.74,289a79,79,0,0,1-7.51-5.26,81.44,81.44,0,0,1-7.21-5.69,83.61,83.61,0,0,1,7.52,5.27A83.25,83.25,0,0,1,287.74,289Z" style="fill:#263238"></path><polygon points="240.45 284.33 201.16 286.94 189.03 264.88 228.33 262.26 240.45 284.33" style="fill:#fff"></polygon><path d="M240.45,284.33s-.09-.14-.24-.41l-.66-1.17-2.49-4.42-8.91-16,.19.11-39.29,2.67c-.05.08.4-.73.21-.38h0v0l0,0,0,0,.05.1.1.18.2.37.4.73.8,1.45q.79,1.45,1.59,2.88l3.08,5.63c2,3.69,4,7.26,5.84,10.65l-.23-.13L229.36,285l8.14-.48,2.18-.12.57,0h.2l-.17,0-.53,0-2.12.16-8.06.6-28.4,2H201l-.07-.13-5.86-10.63L192,270.8l-1.58-2.88-.8-1.45-.4-.73-.2-.37-.11-.18-.05-.1,0,0v0h0c-.19.34.25-.47.21-.39l39.3-2.56h.13l.06.12c3.67,6.77,6.67,12.32,8.77,16.21l2.38,4.42c.25.49.45.86.6,1.15A2.43,2.43,0,0,1,240.45,284.33Z" style="fill:#263238"></path><path d="M228.33,262.27a9.38,9.38,0,0,1-.8,1.11l-2.36,3-8.2,10.1-.12.15-.17-.07-5.47-2.25c-6.15-2.53-11.71-4.84-15.72-6.55l-4.74-2-1.28-.58a1.76,1.76,0,0,1-.44-.23,1.57,1.57,0,0,1,.48.14l1.31.49,4.81,1.88c4.05,1.62,9.63,3.88,15.78,6.41l5.46,2.26-.29.07,8.34-10,2.47-2.88A8.37,8.37,0,0,1,228.33,262.27Z" style="fill:#263238"></path><path d="M209.38,274a56.24,56.24,0,0,1-3.89,6.61,55.73,55.73,0,0,1-4.33,6.33,58.18,58.18,0,0,1,3.89-6.61A55.32,55.32,0,0,1,209.38,274Z" style="fill:#263238"></path><path d="M240.45,284.33c-.07.12-4.69-2.51-10.32-5.89s-10.12-6.21-10-6.33,4.69,2.51,10.32,5.89S240.53,284.21,240.45,284.33Z" style="fill:#263238"></path><rect x="224.92" y="417.24" width="27.7" height="39.98" transform="translate(-201.74 669.91) rotate(-89.2)" style="fill:#fff"></rect><path d="M258.56,451.36s0-.18,0-.52,0-.85,0-1.48c0-1.32,0-3.2,0-5.59,0-4.84.1-11.73.17-20.11l.21.21-40-.5c-.06.05.49-.49.26-.25h0V424l0,.93c0,.61,0,1.23,0,1.84,0,1.22,0,2.43-.05,3.63,0,2.4-.07,4.77-.11,7.09-.07,4.64-.14,9.09-.2,13.29l-.23-.24,28.76.52,8.24.17,2.2.06.57,0,.2,0s-.05,0-.17,0h-2.7l-8.19-.05L218.58,451h-.24v-.24c.05-4.2.11-8.65.16-13.29,0-2.32.07-4.68.1-7.09,0-1.2,0-2.41,0-3.63,0-.61,0-1.22,0-1.84l0-.92v-.9h0c-.24.23.32-.32.27-.26l40,.6h.21v.21c-.17,8.43-.3,15.36-.39,20.23-.06,2.37-.1,4.24-.13,5.55,0,.6,0,1.08-.05,1.44A2.56,2.56,0,0,1,258.56,451.36Z" style="fill:#263238"></path><path d="M258.37,424.76s-.11.14-.36.37l-1.12,1-4.16,3.52c-3.53,2.95-8.42,7-13.85,11.46h-.37l0,0-.06,0-.12-.11-.25-.21-.49-.43-1-.85-1.9-1.66q-1.87-1.62-3.6-3.14c-2.27-2-4.32-3.8-6.06-5.34L221,425.61l-1.09-1c-.24-.23-.37-.36-.36-.38a1.91,1.91,0,0,1,.43.3l1.15.94,4.17,3.51,6.14,5.25,3.61,3.12,1.91,1.65,1,.85.49.42.25.22.12.1.06.06,0,0h-.31c5.43-4.46,10.36-8.46,13.95-11.35l4.26-3.39,1.18-.9A2.41,2.41,0,0,1,258.37,424.76Z" style="fill:#263238"></path><path d="M232.47,435.47a89.12,89.12,0,0,1-6.64,7,88.13,88.13,0,0,1-7,6.64,90.19,90.19,0,0,1,6.64-7A91.12,91.12,0,0,1,232.47,435.47Z" style="fill:#263238"></path><path d="M258,450a90.7,90.7,0,0,1-6.15-7.39,86.36,86.36,0,0,1-5.74-7.72,91,91,0,0,1,6.15,7.39A87.06,87.06,0,0,1,258,450Z" style="fill:#263238"></path><rect x="221.48" y="446.67" width="13.88" height="39.98" transform="translate(-241.37 688.58) rotate(-89.2)" style="fill:#fff"></rect><path d="M248.31,473.88s0-.1,0-.26v-.72c0-.67,0-1.59,0-2.76,0-2.41,0-5.85.05-10.14l.17.17-40-.47.26-.25h0v1.78l0,1.79c0,1.18,0,2.36,0,3.52,0,2.32-.06,4.58-.1,6.76l-.24-.25,28.55.51,8.36.19,2.26.06.59,0a.53.53,0,0,1,.21,0s-.24,0-.74,0h-2.21l-8.31,0-28.72-.28h-.25v-.25q0-3.29.09-6.77c0-1.16,0-2.33,0-3.52l0-1.79v-1.79h0l.27-.26,40,.64h.17V460c-.1,4.34-.18,7.81-.24,10.25,0,1.15-.06,2.06-.08,2.71q0,.42,0,.69A.94.94,0,0,1,248.31,473.88Z" style="fill:#263238"></path><path d="M247.93,460.55a10.75,10.75,0,0,1-1.49.71L242.28,463c-3.52,1.48-8.39,3.5-13.79,5.69h-.23l0,0-.07,0-.12-.05-.25-.11-.5-.22-1-.43L224.4,467l-3.62-1.6-6.12-2.75-4.11-1.89a10.28,10.28,0,0,1-1.47-.76,9.18,9.18,0,0,1,1.56.57l4.17,1.74L221,465l3.63,1.58,1.92.84,1,.43.5.21.25.11.12.06.07,0h-.14c5.39-2.19,10.29-4.15,13.84-5.55l4.22-1.62A8.63,8.63,0,0,1,247.93,460.55Z" style="fill:#263238"></path><path d="M222.11,465.73a54.72,54.72,0,0,1-6.66,3.6,54,54,0,0,1-6.89,3.14,55.68,55.68,0,0,1,6.66-3.6A55.72,55.72,0,0,1,222.11,465.73Z" style="fill:#263238"></path><path d="M247.75,473.18a49.28,49.28,0,0,1-6.14-3.61,49.08,49.08,0,0,1-5.86-4,48.4,48.4,0,0,1,6.14,3.6A49.79,49.79,0,0,1,247.75,473.18Z" style="fill:#263238"></path><rect x="104.54" y="448.5" width="13.88" height="39.98" transform="translate(-358.51 573.45) rotate(-89.2)" style="fill:#ebebeb"></rect><path d="M131.37,475.71s0-.1,0-.26V472c0-2.41,0-5.85,0-10.14l.17.17-40-.47c-.24.23.31-.31.26-.25h0v1.78c0,.6,0,1.19,0,1.79,0,1.18,0,2.36,0,3.52q-.06,3.48-.1,6.77l-.25-.26,28.55.51,8.36.19,2.26.06.59,0,.21,0a5.64,5.64,0,0,1-.74,0h-2.2l-8.31,0-28.73-.29h-.25v-.25q0-3.28.09-6.77c0-1.16,0-2.33,0-3.52,0-.59,0-1.19,0-1.79v-1.79h0l.26-.26,40,.65h.17v.17c-.1,4.34-.18,7.81-.24,10.25,0,1.15-.06,2.06-.08,2.71q0,.42,0,.69C131.39,475.64,131.38,475.71,131.37,475.71Z" style="fill:#263238"></path><path d="M131,462.38a12.07,12.07,0,0,1-1.5.72l-4.16,1.77c-3.52,1.49-8.39,3.5-13.79,5.69h-.23l0,0-.06,0-.13-.06-.25-.11-.49-.22-1-.43-1.92-.84-3.62-1.61-6.12-2.75-4.1-1.89a10.9,10.9,0,0,1-1.48-.76,9.18,9.18,0,0,1,1.56.57l4.17,1.74L104,466.8l3.64,1.58,1.91.84,1,.43.49.21.25.11.13.06.06,0h-.14c5.39-2.19,10.29-4.15,13.84-5.55l4.22-1.62A8.28,8.28,0,0,1,131,462.38Z" style="fill:#263238"></path><path d="M105.17,467.56a54.58,54.58,0,0,1-6.66,3.61,54,54,0,0,1-6.89,3.13,55.68,55.68,0,0,1,6.66-3.6A55.72,55.72,0,0,1,105.17,467.56Z" style="fill:#263238"></path><path d="M130.81,475a49.43,49.43,0,0,1-6.14-3.61,50.11,50.11,0,0,1-5.86-4A48.4,48.4,0,0,1,125,471,48.77,48.77,0,0,1,130.81,475Z" style="fill:#263238"></path><rect x="253.31" y="428.65" width="33.72" height="23.36" transform="translate(-93.17 73.09) rotate(-13.16)" style="fill:#fff"></rect><path d="M289.25,447.86a3,3,0,0,1-.12-.42l-.31-1.21-1.13-4.59c-1-4-2.32-9.62-4-16.48l.26.16-32.82,7.73c0,.07.36-.59.19-.31h0v.07l0,.09.05.19.08.38.18.76c.12.51.24,1,.35,1.51.24,1,.47,2,.7,3q.69,3,1.36,5.82c.88,3.81,1.73,7.47,2.54,10.92l-.29-.18,23.64-5.4,6.78-1.53,1.82-.39.65-.13a3.47,3.47,0,0,1-.58.17l-1.76.44-6.71,1.63-23.73,5.67-.23.06-.06-.23c-.81-3.45-1.67-7.11-2.57-10.91-.44-1.91-.9-3.85-1.36-5.83-.23-1-.47-2-.7-3-.12-.5-.24-1-.35-1.51l-.18-.76-.09-.38-.05-.19,0-.09v-.09h0l.2-.32,32.84-7.63.21-.05,0,.21c1.58,6.93,2.87,12.64,3.78,16.65.44,1.95.78,3.48,1,4.57l.25,1.18A3.86,3.86,0,0,1,289.25,447.86Z" style="fill:#263238"></path><path d="M283.68,426.14a10.53,10.53,0,0,1-.92,1.41c-.69.95-1.59,2.21-2.68,3.73-2.28,3.14-5.46,7.46-9,12.21-.65.15-.18,0-.33.07h0l0,0-.06,0-.12-.06-.25-.13-.49-.25-1-.49-1.89-1-3.58-1.84-6.05-3.15-4.06-2.16a10.65,10.65,0,0,1-1.45-.85,11.93,11.93,0,0,1,1.55.67l4.13,2,6.1,3.05,3.59,1.81,1.9,1,1,.49.49.25.25.12.12.07.06,0H271l-.32.07c3.54-4.74,6.77-9,9.12-12.11,1.15-1.48,2.09-2.71,2.81-3.63A9.32,9.32,0,0,1,283.68,426.14Z" style="fill:#263238"></path><path d="M264.66,440.17a66.29,66.29,0,0,1-4,7.1,63.48,63.48,0,0,1-4.42,6.83,62.3,62.3,0,0,1,4-7.1A63.48,63.48,0,0,1,264.66,440.17Z" style="fill:#263238"></path><path d="M288.52,446.84a62.4,62.4,0,0,1-6.57-4.76,63.29,63.29,0,0,1-6.24-5.18,65.34,65.34,0,0,1,6.56,4.77A64.85,64.85,0,0,1,288.52,446.84Z" style="fill:#263238"></path><rect x="92.89" y="425.03" width="42.57" height="29.49" transform="translate(-97.14 37.55) rotate(-13.16)" style="fill:#fff"></rect><path d="M138.26,449.29s-.06-.19-.15-.54-.22-.87-.38-1.52c-.33-1.36-.8-3.31-1.41-5.79-1.19-5-2.9-12.14-5-20.82l.25.16-41.43,9.74c0,.07.36-.59.19-.31h0v.09l0,.12.06.24.11.48.23,1c.14.64.29,1.27.44,1.9.3,1.27.59,2.53.88,3.77l1.71,7.35C95,450,96,454.57,97,458.93l-.28-.18,29.85-6.86,8.55-1.93,2.29-.51.6-.13.21,0-.18.06-.56.14-2.23.55-8.48,2-29.95,7.12-.23.06,0-.23c-1-4.36-2.11-9-3.24-13.78-.56-2.4-1.14-4.86-1.72-7.35-.3-1.24-.59-2.5-.89-3.77-.14-.63-.29-1.26-.44-1.9l-.23-1L90,430.8l0-.24,0-.12,0-.06v0h0L90,430l41.46-9.64.2-.05.05.2c2,8.76,3.64,16,4.8,21,.55,2.47,1,4.41,1.29,5.77l.33,1.5A3.19,3.19,0,0,1,138.26,449.29Z" style="fill:#263238"></path><path d="M131.23,421.86a1.87,1.87,0,0,1-.28.47l-.91,1.29c-.84,1.17-2,2.77-3.4,4.71l-11.37,15.39c-.65.15-.18,0-.33.07h0l0,0-.08,0-.16-.08-.31-.16-.62-.32-1.22-.62-2.39-1.22L105.57,439l-7.65-4-5.13-2.71-1.38-.76a3,3,0,0,1-.47-.29,1.82,1.82,0,0,1,.52.2l1.43.67,5.2,2.56,7.69,3.86,4.54,2.29,2.4,1.22,1.22.62.62.32.31.15.16.08.07,0,0,0h0c-.14,0,.34-.07-.31.08,4.46-6,8.51-11.33,11.49-15.3l3.53-4.61,1-1.23A2.5,2.5,0,0,1,131.23,421.86Z" style="fill:#263238"></path><path d="M107.22,439.57c.12.07-2.15,4.07-5.08,8.93a99.36,99.36,0,0,1-5.52,8.67,100.78,100.78,0,0,1,5.08-8.94A101,101,0,0,1,107.22,439.57Z" style="fill:#263238"></path><path d="M137.34,448c-.09.11-3.78-2.61-8.25-6.07s-8-6.37-7.92-6.48a100.87,100.87,0,0,1,8.24,6.07A99.15,99.15,0,0,1,137.34,448Z" style="fill:#263238"></path><rect x="223.7" y="330.89" width="26.8" height="38.69" transform="matrix(0.19, -0.98, 0.98, 0.19, -151.5, 517.18)" style="fill:#f5f5f5"></rect><path d="M253.58,367a2.52,2.52,0,0,1,.07-.5l.24-1.41c.23-1.26.56-3.05,1-5.33.86-4.6,2.07-11.16,3.55-19.13l.17.25-38-7.23.3-.2h0v.1l0,.11,0,.22-.09.44-.16.88c-.12.58-.23,1.16-.34,1.74l-.66,3.46c-.44,2.28-.87,4.53-1.3,6.73-.85,4.41-1.66,8.64-2.43,12.63l-.19-.28,27.31,5.36,7.81,1.56,2.09.43.54.12a.6.6,0,0,1,.2.05l-.17,0-.53-.09-2-.36L243,365.14,215.54,360l-.24,0,0-.24c.76-4,1.56-8.23,2.4-12.63q.63-3.31,1.29-6.74.33-1.71.66-3.45l.33-1.75.17-.88.09-.44,0-.22,0-.11v-.1h0l.31-.21,38,7.33.21,0,0,.2c-1.58,8-2.88,14.59-3.8,19.21-.45,2.25-.81,4-1.06,5.27-.12.57-.21,1-.29,1.36S253.58,367.05,253.58,367Z" style="fill:#263238"></path><path d="M257.88,341.67a2.21,2.21,0,0,1-.41.29l-1.22.74-4.56,2.65c-3.86,2.22-9.2,5.26-15.13,8.58-.66-.12-.18,0-.33-.07h0v0l0,0-.05-.06-.1-.13-.2-.24-.39-.49-.79-1L233.12,350l-2.9-3.59-4.87-6.12-3.25-4.14-.87-1.15c-.19-.26-.29-.41-.27-.42a2.19,2.19,0,0,1,.35.35l.94,1.09,3.38,4c1.43,1.74,3.11,3.79,5,6l2.91,3.58,1.54,1.9c.27.32.53.64.79,1l.4.49.2.25.1.12.05.06,0,0,0,0h0l-.32-.06c5.92-3.33,11.3-6.31,15.2-8.45l4.64-2.51,1.27-.66A1.84,1.84,0,0,1,257.88,341.67Z" style="fill:#263238"></path><path d="M231.4,347.49a82.19,82.19,0,0,1-7.5,5.56,84.67,84.67,0,0,1-7.8,5.13,82.19,82.19,0,0,1,7.5-5.56A84.67,84.67,0,0,1,231.4,347.49Z" style="fill:#263238"></path><path d="M253.28,365.62a85.11,85.11,0,0,1-4.62-8.07,87.68,87.68,0,0,1-4.16-8.32,80.23,80.23,0,0,1,4.62,8.07A82.24,82.24,0,0,1,253.28,365.62Z" style="fill:#263238"></path></g><g id="freepik--speech-bubble-2--inject-54"><path d="M418.23,154.88H345.55a2.24,2.24,0,0,0-2.24,2.24v54.14a2.24,2.24,0,0,0,2.24,2.24h51a2.25,2.25,0,0,1,1.77.87l5.32,6.89a.83.83,0,0,0,1.35,0l4.68-6.76a2.25,2.25,0,0,1,1.84-1h6.7a2.24,2.24,0,0,0,2.24-2.24V157.12A2.24,2.24,0,0,0,418.23,154.88Z" style="fill:#fff"></path><path d="M418.23,154.88a1.57,1.57,0,0,1,.7.09,2.23,2.23,0,0,1,1.47,1.42,4.83,4.83,0,0,1,.13,1.55c0,.56,0,1.18,0,1.85,0,1.35,0,2.89,0,4.63,0,7,.05,17.07.08,29.52,0,3.12,0,6.38,0,9.78,0,1.7,0,3.44,0,5.2,0,.9,0,1.75,0,2.71a2.46,2.46,0,0,1-1.93,2,9.93,9.93,0,0,1-1.42.06h-5.63a2,2,0,0,0-1.24.34,3.09,3.09,0,0,0-.89,1l-.83,1.2-3.37,4.88a1.31,1.31,0,0,1-.65.59,1.08,1.08,0,0,1-.93-.09,2.87,2.87,0,0,1-.57-.62l-.46-.6L400.85,218l-1.91-2.46c-.31-.4-.64-.86-.95-1.21a2,2,0,0,0-1.24-.59H345.87a2.73,2.73,0,0,1-1.83-.51,2.49,2.49,0,0,1-1-1.65c-.05-2.42,0-4.7,0-7V190.89c0-9,0-17.62,0-25.86v-7.6a2.79,2.79,0,0,1,.34-1.55,2.48,2.48,0,0,1,1.21-1,3.76,3.76,0,0,1,1.53-.18h11.36l20.38,0,29.52.09,8,0,2.09,0,.71,0s-.24,0-.71,0l-2.09,0-8,0-29.52.08-20.38,0-11.36,0a3.17,3.17,0,0,0-1.36.15,2,2,0,0,0-1,.85,2.31,2.31,0,0,0-.27,1.32v1.5q0,3,0,6.1c0,8.24,0,16.89,0,25.86v13.68c0,2.3,0,4.68,0,7a2,2,0,0,0,.76,1.31,2.23,2.23,0,0,0,1.52.4h50.92a2.52,2.52,0,0,1,1.55.74c.38.44.66.84,1,1.25.63.83,1.27,1.65,1.9,2.46l1.87,2.44.47.6a2.65,2.65,0,0,0,.44.51.63.63,0,0,0,.52.05c.18-.06.27-.18.42-.42,1.15-1.65,2.28-3.27,3.39-4.88l.83-1.19a3.5,3.5,0,0,1,1-1.14,2.49,2.49,0,0,1,1.49-.41h5.63a9.5,9.5,0,0,0,1.33,0,2,2,0,0,0,1.6-1.67c0-.84,0-1.78,0-2.65,0-1.76,0-3.5,0-5.2,0-3.4,0-6.66,0-9.78,0-12.45.07-22.53.09-29.52,0-1.74,0-3.28,0-4.63,0-.67,0-1.29,0-1.85a4.79,4.79,0,0,0-.1-1.51,2.21,2.21,0,0,0-1.38-1.41A3.42,3.42,0,0,0,418.23,154.88Z" style="fill:#263238"></path><rect x="360.12" y="174.83" width="37.55" height="26.01" transform="translate(-1.44 2.93) rotate(-0.44)" style="fill:#e0e0e0"></rect><path d="M397.77,200.7a3.47,3.47,0,0,1,0-.49c0-.35,0-.81,0-1.39,0-1.24-.06-3-.1-5.26-.06-4.54-.15-11-.25-18.87l.21.2-37.54.35c-.06,0,.48-.5.25-.26h0v1.73c0,.57,0,1.15,0,1.72,0,1.15,0,2.29,0,3.42,0,2.25,0,4.48.05,6.65,0,4.36.05,8.54.08,12.49l-.24-.24,27-.09H395l2.07,0h.56l-.51,0-2,.05-7.68.12-27.17.33H360V201c0-4-.07-8.13-.11-12.48q0-3.27-.05-6.66l0-3.41c0-.58,0-1.15,0-1.73V175h0c-.23.23.32-.32.26-.27l37.55-.23h.21v.21c0,7.92,0,14.44,0,19,0,2.23,0,4,0,5.21,0,.57,0,1,0,1.35A3.61,3.61,0,0,1,397.77,200.7Z" style="fill:#263238"></path><path d="M397.05,175.73a1.66,1.66,0,0,1-.34.36l-1,.94-3.83,3.39c-3.25,2.85-7.76,6.76-12.77,11h-.35v0l0,0-.06,0-.12-.1-.24-.19-.47-.4-.93-.77-1.82-1.52-3.44-2.88-5.8-4.89-3.89-3.33-1-.93c-.24-.21-.35-.33-.34-.35a1.9,1.9,0,0,1,.4.27l1.1.85,4,3.21,5.88,4.81,3.45,2.85,1.83,1.51.93.77.47.39.24.2.12.1.06.05,0,0v0h0c-.15,0,.34,0-.33,0,5-4.29,9.56-8.15,12.87-10.93l3.94-3.27,1.09-.86A1.77,1.77,0,0,1,397.05,175.73Z" style="fill:#263238"></path><path d="M373,186.31a79.75,79.75,0,0,1-6.08,6.72,77.51,77.51,0,0,1-6.46,6.36,79.75,79.75,0,0,1,6.08-6.72A79.36,79.36,0,0,1,373,186.31Z" style="fill:#263238"></path><path d="M397.22,199.41a78.55,78.55,0,0,1-5.93-6.81,79.64,79.64,0,0,1-5.54-7.13,78.43,78.43,0,0,1,5.94,6.8A77.56,77.56,0,0,1,397.22,199.41Z" style="fill:#263238"></path></g><g id="freepik--Number--inject-54"><rect x="373.87" y="163.68" width="39.95" height="19.44" rx="9.47" style="fill:#BB86FC"></rect><path d="M384.11,173.93h-1.33v1.31h-1v-1.31h-1.32V173h1.32v-1.31h1V173h1.33Z" style="fill:#fff"></path><path d="M391.48,174.45a1.85,1.85,0,0,1-2,1.79c-1.48,0-2.4-.93-2.4-2.66a2.61,2.61,0,0,1,2.74-2.89,2.86,2.86,0,0,1,1.49.37l-.46.91a1.75,1.75,0,0,0-1-.27,1.43,1.43,0,0,0-1.52,1.56,1.81,1.81,0,0,1,1.33-.48A1.7,1.7,0,0,1,391.48,174.45Zm-1.2.07a.82.82,0,0,0-.92-.81.84.84,0,0,0-.92.81c0,.46.34.79.94.79A.8.8,0,0,0,390.28,174.52Z" style="fill:#fff"></path><path d="M393.46,175.46a1.75,1.75,0,0,1-.21.77l-.43,1.1h-.76l.33-1.22a.66.66,0,0,1-.41-.65.74.74,0,0,1,1.48,0Z" style="fill:#fff"></path><path d="M398.31,173.35a2.61,2.61,0,0,1-2.74,2.89,2.86,2.86,0,0,1-1.49-.37l.46-.91a1.74,1.74,0,0,0,1,.27,1.43,1.43,0,0,0,1.51-1.57,1.84,1.84,0,0,1-1.34.49,1.71,1.71,0,0,1-1.85-1.68,1.85,1.85,0,0,1,2-1.78C397.4,170.69,398.31,171.62,398.31,173.35Zm-1.39-.94c0-.46-.35-.79-.94-.79a.79.79,0,0,0-.89.79.81.81,0,0,0,.91.81A.84.84,0,0,0,396.92,172.41Z" style="fill:#fff"></path><path d="M403.19,173.35a2.61,2.61,0,0,1-2.74,2.89,2.82,2.82,0,0,1-1.48-.37l.46-.91a1.71,1.71,0,0,0,1,.27,1.43,1.43,0,0,0,1.51-1.57,1.8,1.8,0,0,1-1.33.49,1.7,1.7,0,0,1-1.85-1.68,1.84,1.84,0,0,1,2-1.78C402.28,170.69,403.19,171.62,403.19,173.35Zm-1.38-.94c0-.46-.35-.79-.94-.79a.8.8,0,0,0-.9.79.81.81,0,0,0,.91.81A.84.84,0,0,0,401.81,172.41Z" style="fill:#fff"></path><path d="M408.08,173.35a2.61,2.61,0,0,1-2.74,2.89,2.86,2.86,0,0,1-1.49-.37l.46-.91a1.76,1.76,0,0,0,1,.27,1.43,1.43,0,0,0,1.51-1.57,1.81,1.81,0,0,1-1.34.49,1.7,1.7,0,0,1-1.84-1.68,1.84,1.84,0,0,1,2-1.78C407.17,170.69,408.08,171.62,408.08,173.35Zm-1.39-.94c0-.46-.34-.79-.93-.79a.8.8,0,0,0-.9.79.81.81,0,0,0,.91.81A.83.83,0,0,0,406.69,172.41Z" style="fill:#fff"></path></g><g id="freepik--speech-bubble-1--inject-54"><polygon points="137.47 122.89 152.84 106.96 156.67 132.15 177.27 131.45 164.38 148.38 177.35 165.4 155.87 161.17 152.76 182.78 135.4 169.62 113.5 181.09 118.29 158.97 93.44 155.06 112.77 143.65 101.5 124.22 120.81 131.77 123.16 107.81 137.47 122.89" style="fill:#fff"></polygon><path d="M137.47,122.89l-.95-1-2.77-2.88-10.68-11.16.22-.07c-.63,6.51-1.4,14.61-2.3,24l0,.23-.22-.08-19.32-7.53.25-.29L113,143.54l.11.19-.19.12L93.57,155.27l-.09-.46,24.85,3.9.27,0-.06.27c-1.52,7-3.14,14.51-4.78,22.13l-.39-.3,19-9.93,2.93-1.53.15-.08.14.1,17.36,13.16-.42.17q1.59-11.06,3.11-21.61l0-.27.27,0,21.47,4.25-.24.39-13-17-.11-.14.11-.14,12.91-16.92.17.34-20.6.67h-.16l0-.15c-1.49-9.92-2.75-18.36-3.77-25.2l.22.07-11.52,11.82-2.95,3-1,1s.34-.38,1-1.07l2.94-3.08,11.35-11.86.18-.19,0,.25c1.05,6.84,2.35,15.27,3.87,25.18l-.18-.15,20.6-.73h.44l-.27.35-12.87,16.94v-.28l13,17,.4.52-.64-.13-21.48-4.22.3-.22q-1.51,10.55-3.1,21.62l-.06.44-.36-.27-17.37-13.15.29,0-2.93,1.53-19,9.93-.5.27.12-.56,4.8-22.12.21.31L93.41,155.3l-.68-.11.59-.35,19.33-11.39-.08.32-11.24-19.45-.3-.51.55.22,19.3,7.58-.24.15c.94-9.36,1.75-17.46,2.4-24l0-.28.18.2,10.53,11.2,2.75,2.94Z" style="fill:#263238"></path><path d="M178.71,149.46a4.59,4.59,0,1,0,4.59-4.59A4.58,4.58,0,0,0,178.71,149.46Z" style="fill:#fff"></path><path d="M178.71,149.46s0-.41.2-1.1a4.55,4.55,0,0,1,1.68-2.45,4.34,4.34,0,0,1,1.89-.82,4.48,4.48,0,0,1,2.33.2,4.44,4.44,0,0,1,2.05,6.79,4.3,4.3,0,0,1-2.05,1.55,4.51,4.51,0,0,1-2.34.21,4.56,4.56,0,0,1-3.56-3.27c-.18-.7-.17-1.11-.2-1.11a1,1,0,0,0,0,.3,3.37,3.37,0,0,0,.1.84,4.64,4.64,0,0,0,3.63,3.5,4.68,4.68,0,0,0,4.7-1.83,4.71,4.71,0,0,0,0-5.62,4.66,4.66,0,0,0-2.21-1.64,4.73,4.73,0,0,0-2.48-.19,4.63,4.63,0,0,0-3.64,3.51,3.32,3.32,0,0,0-.1.84A.94.94,0,0,0,178.71,149.46Z" style="fill:#263238"></path><path d="M135.19,132.77l.93,14.68a2.39,2.39,0,0,0,2.24,2.23h0a2.38,2.38,0,0,0,2.51-2.12l1.63-14.75a1.87,1.87,0,0,0-1.88-2.08l-3.59.05A1.88,1.88,0,0,0,135.19,132.77Z" style="fill:#BB86FC"></path><path d="M142.25,157.94a3.58,3.58,0,1,1-2.27-4.53A3.58,3.58,0,0,1,142.25,157.94Z" style="fill:#BB86FC"></path></g></svg>