<svg width="180" height="51" viewBox="0 0 180 51" fill="none" xmlns="http://www.w3.org/2000/svg">
<path d="M65.36 36V35.064L66.728 34.92C66.968 34.888 67.128 34.808 67.208 34.68C67.304 34.552 67.36 34.344 67.376 34.056L68.216 21.096V20.88L66.44 20.808V19.8H70.376L75.728 32.208L80.912 19.8H84.968V20.688L83.6 20.784C83.376 20.8 83.216 20.848 83.12 20.928C83.04 20.992 83.008 21.128 83.024 21.336L83.936 34.944L85.88 35.064V36H79.4V35.064L80.768 34.968C81.248 34.952 81.464 34.664 81.416 34.104L80.696 23.496L75.128 36H74.768L69.176 23.616L68.816 34.944L70.76 35.064V36H65.36ZM95.1864 36.12V34.344H95.0424C94.4984 35.064 93.8984 35.56 93.2424 35.832C92.5864 36.104 91.9304 36.24 91.2744 36.24C90.3304 36.24 89.5704 35.992 88.9944 35.496C88.4344 35 88.1544 34.192 88.1544 33.072V27.48L86.8824 26.4V26.064L90.1944 25.2H90.3864V32.328C90.3864 33.064 90.5704 33.624 90.9384 34.008C91.3064 34.376 91.7864 34.56 92.3784 34.56C93.2904 34.56 94.2264 34.256 95.1864 33.648V27.48L93.9144 26.4V26.064L97.2264 25.2H97.4184V34.992H99.0264V35.784L95.4264 36.12H95.1864ZM103.987 36.24C103.395 36.24 102.803 36.176 102.211 36.048C101.635 35.936 101.147 35.776 100.747 35.568L100.627 32.448H101.275C101.531 33.072 101.779 33.584 102.019 33.984C102.275 34.384 102.571 34.68 102.907 34.872C103.243 35.064 103.683 35.16 104.227 35.16C104.803 35.16 105.259 35.016 105.595 34.728C105.931 34.424 106.091 34.04 106.075 33.576C106.059 33.08 105.891 32.704 105.571 32.448C105.267 32.176 104.715 31.872 103.915 31.536C103.339 31.296 102.819 31.048 102.355 30.792C101.891 30.52 101.523 30.192 101.251 29.808C100.995 29.408 100.867 28.912 100.867 28.32C100.883 27.712 101.059 27.176 101.395 26.712C101.747 26.232 102.211 25.864 102.787 25.608C103.363 25.336 104.003 25.2 104.707 25.2C105.235 25.2 105.771 25.248 106.315 25.344C106.875 25.44 107.339 25.592 107.707 25.8V28.536H107.107C106.883 27.848 106.627 27.336 106.339 27C106.051 26.664 105.739 26.44 105.403 26.328C105.083 26.216 104.739 26.16 104.371 26.16C103.923 26.16 103.539 26.288 103.219 26.544C102.899 26.784 102.739 27.12 102.739 27.552C102.739 27.936 102.803 28.232 102.931 28.44C103.075 28.632 103.299 28.808 103.603 28.968C103.923 29.112 104.355 29.304 104.899 29.544C105.779 29.912 106.515 30.344 107.107 30.84C107.699 31.336 107.995 32.04 107.995 32.952C107.995 33.912 107.619 34.704 106.867 35.328C106.131 35.936 105.171 36.24 103.987 36.24ZM109.806 36V35.232L110.694 35.136C111.126 35.088 111.342 34.8 111.342 34.272V27.48L110.07 26.4V26.064L113.382 25.2H113.574V35.136L115.134 35.232V36H109.806ZM112.47 21.936C112.038 21.936 111.67 21.784 111.366 21.48C111.078 21.176 110.934 20.808 110.934 20.376C110.934 19.944 111.078 19.584 111.366 19.296C111.67 18.992 112.038 18.84 112.47 18.84C112.886 18.84 113.246 18.992 113.55 19.296C113.854 19.584 114.006 19.944 114.006 20.376C114.006 20.808 113.854 21.176 113.55 21.48C113.246 21.784 112.886 21.936 112.47 21.936ZM121.312 36.24C119.744 36.24 118.552 35.768 117.736 34.824C116.92 33.88 116.512 32.648 116.512 31.128C116.512 29.976 116.768 28.952 117.28 28.056C117.792 27.16 118.48 26.464 119.344 25.968C120.224 25.456 121.184 25.2 122.224 25.2C123.104 25.2 123.832 25.4 124.408 25.8C124.984 26.2 125.272 26.656 125.272 27.168C125.272 27.568 125.104 27.92 124.768 28.224C124.432 28.512 123.96 28.656 123.352 28.656L122.632 26.448C122.408 26.336 122.056 26.28 121.576 26.28C120.76 26.28 120.096 26.6 119.584 27.24C119.088 27.88 118.84 28.864 118.84 30.192C118.84 31.648 119.152 32.736 119.776 33.456C120.416 34.16 121.248 34.512 122.272 34.512C122.784 34.512 123.288 34.424 123.784 34.248C124.28 34.056 124.76 33.736 125.224 33.288L125.512 33.552C125.384 33.904 125.144 34.288 124.792 34.704C124.456 35.12 124 35.48 123.424 35.784C122.864 36.088 122.16 36.24 121.312 36.24ZM136.153 36.36C135.225 36.36 134.369 36.272 133.585 36.096C132.801 35.936 132.081 35.704 131.425 35.4L131.017 30.936H131.785C132.185 31.88 132.593 32.664 133.009 33.288C133.441 33.912 133.953 34.376 134.545 34.68C135.137 34.968 135.873 35.112 136.753 35.112C137.745 35.112 138.537 34.864 139.129 34.368C139.721 33.872 140.017 33.168 140.017 32.256C140.017 31.616 139.873 31.096 139.585 30.696C139.297 30.296 138.849 29.952 138.241 29.664C137.649 29.36 136.881 29.048 135.937 28.728C134.977 28.392 134.161 28.032 133.489 27.648C132.817 27.264 132.305 26.792 131.953 26.232C131.617 25.672 131.449 24.976 131.449 24.144C131.449 23.184 131.689 22.36 132.169 21.672C132.665 20.984 133.337 20.464 134.185 20.112C135.049 19.744 136.017 19.56 137.089 19.56C137.937 19.56 138.753 19.632 139.537 19.776C140.321 19.92 141.017 20.152 141.625 20.472L141.817 24.36H141.097C140.697 23.288 140.273 22.504 139.825 22.008C139.377 21.496 138.897 21.168 138.385 21.024C137.873 20.88 137.321 20.808 136.729 20.808C135.705 20.808 134.929 21.048 134.401 21.528C133.873 21.992 133.609 22.568 133.609 23.256C133.609 23.848 133.729 24.336 133.969 24.72C134.209 25.104 134.617 25.44 135.193 25.728C135.769 26.016 136.561 26.32 137.569 26.64C138.513 26.944 139.337 27.304 140.041 27.72C140.761 28.12 141.313 28.632 141.697 29.256C142.097 29.864 142.297 30.632 142.297 31.56C142.297 32.536 142.025 33.384 141.481 34.104C140.937 34.824 140.201 35.384 139.273 35.784C138.345 36.168 137.305 36.36 136.153 36.36ZM146.45 41.16C145.986 41.16 145.642 41.032 145.418 40.776C145.194 40.536 145.066 40.232 145.034 39.864C145.002 39.512 145.026 39.176 145.106 38.856H147.386L148.754 36.552L144.938 27.408L144.482 26.328L143.378 26.208V25.44H148.922V26.208L148.082 26.28C147.826 26.296 147.61 26.328 147.434 26.376C147.258 26.424 147.218 26.576 147.314 26.832L147.578 27.504L149.93 33.528L152.258 26.376L150.914 26.208V25.44H155.09V26.208L154.442 26.256C154.186 26.272 154.018 26.312 153.938 26.376C153.858 26.424 153.778 26.536 153.698 26.712L153.458 27.288L150.122 35.4L149.834 36.12L149.81 36.216L148.562 39.36C148.402 39.76 148.146 40.16 147.794 40.56C147.442 40.96 146.994 41.16 146.45 41.16ZM155.931 36V35.232L156.819 35.136C157.251 35.088 157.467 34.8 157.467 34.272V27.48L156.195 26.4V26.064L159.507 25.2H159.699V27.096H159.891C160.435 26.376 161.035 25.88 161.691 25.608C162.347 25.336 163.003 25.2 163.659 25.2C164.603 25.2 165.355 25.448 165.915 25.944C166.491 26.44 166.779 27.248 166.779 28.368V35.136L168.339 35.232V36H163.011V35.232L163.899 35.136C164.331 35.088 164.547 34.8 164.547 34.272V29.112C164.547 28.36 164.363 27.8 163.995 27.432C163.643 27.064 163.163 26.88 162.555 26.88C161.611 26.88 160.659 27.192 159.699 27.816V35.136L161.259 35.232V36H155.931ZM174.398 36.24C172.83 36.24 171.638 35.768 170.822 34.824C170.006 33.88 169.598 32.648 169.598 31.128C169.598 29.976 169.854 28.952 170.366 28.056C170.878 27.16 171.566 26.464 172.43 25.968C173.31 25.456 174.27 25.2 175.31 25.2C176.19 25.2 176.918 25.4 177.494 25.8C178.07 26.2 178.358 26.656 178.358 27.168C178.358 27.568 178.19 27.92 177.854 28.224C177.518 28.512 177.046 28.656 176.438 28.656L175.718 26.448C175.494 26.336 175.142 26.28 174.662 26.28C173.846 26.28 173.182 26.6 172.67 27.24C172.174 27.88 171.926 28.864 171.926 30.192C171.926 31.648 172.238 32.736 172.862 33.456C173.502 34.16 174.334 34.512 175.358 34.512C175.87 34.512 176.374 34.424 176.87 34.248C177.366 34.056 177.846 33.736 178.31 33.288L178.598 33.552C178.47 33.904 178.23 34.288 177.878 34.704C177.542 35.12 177.086 35.48 176.51 35.784C175.95 36.088 175.246 36.24 174.398 36.24Z" fill="white"/>
<path d="M29.8024 17.409V11.6836C29.8024 11.5813 29.7533 11.4851 29.6702 11.4246L26.2738 8.95164C26.0601 8.79607 25.759 8.94756 25.759 9.21063V38.0709M19.6503 43.5302C20.4491 43.5395 21.2418 43.3913 21.9826 43.0942C22.7233 42.7971 23.3973 42.357 23.9655 41.7994C24.5336 41.2418 24.9847 40.5778 25.2926 39.8459C25.6005 39.114 25.759 38.3287 25.759 37.5355C25.759 36.7423 25.6005 35.957 25.2926 35.225C24.9847 34.4931 24.5336 33.8291 23.9655 33.2715C23.3973 32.7139 22.7233 32.2739 21.9826 31.9768C21.2418 31.6797 20.4491 31.5315 19.6503 31.5408C18.0612 31.5592 16.5436 32.1989 15.4265 33.3212C14.3094 34.4434 13.6829 35.9576 13.6829 37.5355C13.6829 39.1133 14.3094 40.6276 15.4265 41.7498C16.5436 42.872 18.0612 43.5117 19.6503 43.5302Z" stroke="white" stroke-width="2" stroke-linecap="round" stroke-linejoin="round"/>
<path d="M34.2336 36.8929L34.2336 29.8006L34.2336 15.0535" stroke="white" stroke-width="2" stroke-linecap="round"/>
<path d="M40.056 32.1825L40.0561 29.8272L40.0561 19.871" stroke="white" stroke-width="2" stroke-linecap="round"/>
<path d="M45.8784 28.6496L45.8784 23.6715" stroke="white" stroke-width="2" stroke-linecap="round"/>
<path d="M6.36547 28.6496L6.36547 26.1338L6.36547 23.618" stroke="white" stroke-width="2" stroke-linecap="round"/>
<path d="M12.1879 32.2895L12.1879 26.1338L12.1879 19.9781" stroke="white" stroke-width="2" stroke-linecap="round"/>
<path d="M19.2542 28.6496L19.2542 21.9051L19.2542 15.1606" stroke="white" stroke-width="2" stroke-linecap="round"/>
</svg>
